<svg width="24" height="24" viewBox="0 0 24 24" fill="none" xmlns="http://www.w3.org/2000/svg">
<path d="M11.9924 19.4933C16.2639 19.4933 19.7896 15.9676 19.7896 11.7037C19.7896 7.43973 16.2564 3.91406 11.9849 3.91406C7.72096 3.91406 4.20282 7.43973 4.20282 11.7037C4.20282 15.9676 7.72849 19.4933 11.9924 19.4933ZM11.8116 13.2556C11.322 13.2556 11.0508 13.0296 11.0508 12.5776V12.4947C11.0508 11.7866 11.4576 11.3873 12.015 10.9955C12.678 10.536 13.0019 10.2874 13.0019 9.80525C13.0019 9.28544 12.6027 8.9389 11.9849 8.9389C11.5329 8.9389 11.2014 9.1649 10.9528 9.54911C10.7117 9.82031 10.5987 10.0539 10.1467 10.0539C9.7776 10.0539 9.47626 9.81278 9.47626 9.4361C9.47626 9.28544 9.50639 9.14983 9.55913 9.01423C9.80773 8.27595 10.7117 7.67327 12.0602 7.67327C13.4615 7.67327 14.6442 8.41908 14.6442 9.72991C14.6442 10.6339 14.147 11.0859 13.3635 11.5907C12.8663 11.9146 12.5801 12.1858 12.5575 12.5926C12.5575 12.6152 12.5499 12.6529 12.5499 12.683C12.5273 13.007 12.2486 13.2556 11.8116 13.2556ZM11.8041 15.6663C11.2918 15.6663 10.87 15.2972 10.87 14.7999C10.87 14.3027 11.2843 13.9336 11.8041 13.9336C12.3164 13.9336 12.7307 14.3027 12.7307 14.7999C12.7307 15.3047 12.3088 15.6663 11.8041 15.6663Z" fill="white"/>
</svg>
