<svg width="24" height="24" viewBox="0 0 24 24" fill="none" xmlns="http://www.w3.org/2000/svg">
<path d="M6.28206 19.8172C7.20115 19.8172 9.39339 18.8605 10.7645 17.8962C10.9076 17.7907 11.0282 17.7531 11.1487 17.7531C11.2466 17.7606 11.337 17.7681 11.4199 17.7681C16.8515 17.7606 20.7388 14.7999 20.7388 10.7319C20.7388 6.83705 16.844 3.70312 11.9924 3.70312C7.14088 3.70312 3.2536 6.83705 3.2536 10.7319C3.2536 13.1576 4.7151 15.3273 7.18608 16.6607C7.32168 16.7436 7.35935 16.8566 7.29155 16.9922C6.85461 17.7229 6.12386 18.5366 5.82252 18.9208C5.48351 19.3502 5.67938 19.8172 6.28206 19.8172Z" fill="white"/>
</svg>
