<svg width="24" height="24" viewBox="0 0 24 24" fill="none" xmlns="http://www.w3.org/2000/svg">
<path d="M11.7246 19.3677C11.8602 19.3677 12.0561 19.3149 12.2519 19.217C16.5686 16.9946 18 15.8269 18 13.1224V7.52504C18 6.63609 17.6534 6.31215 16.9076 6.00328C16.0789 5.65674 13.3217 4.68492 12.5156 4.41371C12.267 4.33838 11.9883 4.28564 11.7246 4.28564C11.4684 4.28564 11.1897 4.33838 10.9411 4.41371C10.1275 4.66985 7.37023 5.66427 6.54908 6.00328C5.80327 6.30462 5.45673 6.63609 5.45673 7.52504V13.1224C5.45673 15.8269 6.94836 16.8892 11.2048 19.217C11.4006 19.3225 11.5965 19.3677 11.7246 19.3677ZM10.8884 15.2092C10.6021 15.2092 10.3686 15.0887 10.1576 14.8175L8.31192 12.58C8.17631 12.4067 8.10851 12.2259 8.10851 12.0376C8.10851 11.6459 8.41738 11.3295 8.80159 11.3295C9.04266 11.3295 9.22347 11.4199 9.41934 11.6609L10.8658 13.4916L13.9696 8.527C14.1353 8.26332 14.3462 8.12772 14.5873 8.12772C14.964 8.12772 15.3181 8.39139 15.3181 8.79067C15.3181 8.96394 15.2277 9.15227 15.1222 9.32554L11.589 14.8099C11.4157 15.0736 11.1746 15.2092 10.8884 15.2092Z" fill="white"/>
</svg>
