<svg width="24" height="24" viewBox="0 0 24 24" fill="none" xmlns="http://www.w3.org/2000/svg">
<path d="M12 19.4934C16.2564 19.4934 19.7821 15.9752 19.7821 11.7113C19.7821 7.45487 16.2564 3.9292 11.9924 3.9292C7.73603 3.9292 4.2179 7.45487 4.2179 11.7113C4.2179 15.9752 7.74357 19.4934 12 19.4934ZM8.49691 13.8282C8.41405 13.3084 8.62498 13.0221 9.18999 12.879L11.0056 12.4646C10.87 12.4044 10.7268 12.2462 10.659 12.0277L9.4386 11.8695C8.88112 11.7942 8.63252 11.4777 8.63252 10.9278V9.50398C8.63252 9.27797 8.76812 9.14237 9.00166 9.14237C9.22766 9.14237 9.36326 9.27797 9.36326 9.50398V10.7771C9.36326 11.0785 9.529 11.1764 9.80021 11.2065L10.659 11.3271C10.6967 11.1915 10.7796 11.0634 10.8624 10.9881C10.1693 10.86 9.82281 10.4306 9.82281 9.79025C9.82281 9.29304 9.99608 8.81843 10.2974 8.44929L10.2597 8.41915C9.83034 8.11782 9.76254 7.67334 10.0337 7.1686L10.2522 6.77686C10.3426 6.61112 10.4481 6.55085 10.5988 6.55085C10.7946 6.55085 10.9378 6.68645 10.9378 6.86726C10.9378 6.95013 10.9227 7.01039 10.87 7.09326L10.6741 7.40967C10.5611 7.60554 10.5234 7.77881 10.6666 7.89934L10.772 7.98221C11.1336 7.74114 11.5932 7.598 12.0075 7.598C12.4219 7.598 12.8739 7.74114 13.2355 7.98221L13.3409 7.89934C13.4841 7.77881 13.4539 7.60554 13.3334 7.40967L13.1375 7.09326C13.0848 7.01039 13.0773 6.95013 13.0773 6.86726C13.0773 6.68645 13.2129 6.55085 13.4087 6.55085C13.5594 6.55085 13.6573 6.61865 13.7553 6.77686L13.9813 7.1686C14.26 7.66581 14.1772 8.11782 13.7478 8.41915L13.7176 8.44929C14.0114 8.81843 14.1847 9.29304 14.1847 9.79025C14.1847 10.4306 13.8382 10.8675 13.1451 10.9881C13.2279 11.0634 13.3183 11.1915 13.356 11.3271L14.2148 11.2065C14.486 11.1689 14.6518 11.0785 14.6518 10.7771V9.50398C14.6518 9.27797 14.7874 9.14237 15.0058 9.14237C15.2394 9.14237 15.3825 9.27797 15.3825 9.50398V10.9278C15.3825 11.4777 15.1264 11.7942 14.5689 11.8695L13.3485 12.0277C13.2807 12.2462 13.1375 12.4044 13.0019 12.4646L14.8175 12.879C15.39 13.0221 15.601 13.3084 15.5181 13.8282L15.1866 15.9602C15.149 16.1937 15.036 16.3444 14.81 16.3444C14.584 16.3444 14.4107 16.1711 14.4559 15.8999L14.7497 13.9638C14.7874 13.7303 14.712 13.6173 14.4484 13.5419C14.358 13.5118 14.26 13.4892 14.1696 13.4666C14.2148 13.5947 14.2374 13.7453 14.2374 13.9186C14.2374 15.2822 13.2053 16.5704 12.0075 16.5704C10.8022 16.5704 9.77761 15.2822 9.77761 13.9186C9.77761 13.7453 9.79267 13.5947 9.83787 13.4666C9.74747 13.4892 9.65707 13.5118 9.55913 13.5419C9.29546 13.6173 9.22013 13.7303 9.26533 13.9638L9.55913 15.8999C9.5968 16.1711 9.42353 16.3444 9.19753 16.3444C8.97152 16.3444 8.85852 16.1937 8.82839 15.9602L8.49691 13.8282Z" fill="white"/>
</svg>
