<svg width="24" height="24" viewBox="0 0 24 24" fill="none" xmlns="http://www.w3.org/2000/svg">
<path d="M12 17.1579C12.3315 17.1579 12.791 15.8998 12.791 13.8658V9.11966C14.0642 8.77312 14.9908 7.60543 14.9908 6.22681C14.9908 4.56944 13.6649 3.22095 12 3.22095C10.3426 3.22095 9.01673 4.56944 9.01673 6.22681C9.01673 7.5979 9.93582 8.76559 11.209 9.11213V13.8658C11.209 15.8923 11.6761 17.1579 12 17.1579ZM11.1562 6.39254C10.6138 6.39254 10.1317 5.91793 10.1317 5.36046C10.1317 4.81051 10.6138 4.34344 11.1562 4.34344C11.7213 4.34344 12.1808 4.81051 12.1808 5.36046C12.1808 5.91793 11.7213 6.39254 11.1562 6.39254ZM12 20.1261C16.7913 20.1261 19.6615 18.5139 19.6615 16.6607C19.6615 14.6342 16.5577 13.3233 14.0792 13.2179V14.5664C15.7667 14.6417 17.9439 15.4177 17.9439 16.51C17.9439 17.8058 15.4428 18.7023 12 18.7023C8.55719 18.7023 6.06361 17.8133 6.06361 16.51C6.06361 15.4177 8.24078 14.6417 9.92075 14.5664V13.2179C7.44223 13.3233 4.33844 14.6342 4.33844 16.6607C4.33844 18.5139 7.2087 20.1261 12 20.1261Z" fill="white"/>
</svg>
