<svg width="24" height="24" viewBox="0 0 24 24" fill="none" xmlns="http://www.w3.org/2000/svg">
<path d="M7.98466 19.87H16.0154C17.6351 19.87 18.4713 19.0187 18.4713 17.3915V10.649H12.8212C11.8795 10.649 11.4275 10.197 11.4275 9.2553V3.54492H7.98466C6.3725 3.54492 5.52875 4.39621 5.52875 6.03097V17.3915C5.52875 19.0187 6.3725 19.87 7.98466 19.87ZM12.9643 9.54911H18.3959C18.3507 9.20257 18.1021 8.87863 17.7104 8.47935L13.5896 4.3058C13.2129 3.9216 12.8739 3.66546 12.5274 3.62026V9.11217C12.5349 9.40597 12.678 9.54911 12.9643 9.54911ZM9.07702 13.9863C8.75308 13.9863 8.51954 13.7528 8.51954 13.4515C8.51954 13.1501 8.75308 12.9166 9.07702 12.9166H14.9456C15.2545 12.9166 15.4955 13.1501 15.4955 13.4515C15.4955 13.7528 15.2545 13.9863 14.9456 13.9863H9.07702ZM9.07702 16.8114C8.75308 16.8114 8.51954 16.5778 8.51954 16.2765C8.51954 15.9752 8.75308 15.7416 9.07702 15.7416H14.9456C15.2545 15.7416 15.4955 15.9752 15.4955 16.2765C15.4955 16.5778 15.2545 16.8114 14.9456 16.8114H9.07702Z" fill="white"/>
</svg>
