<svg width="24" height="24" viewBox="0 0 24 24" fill="none" xmlns="http://www.w3.org/2000/svg">
<path d="M11.9925 19.4933C16.264 19.4933 19.7897 15.9676 19.7897 11.7037C19.7897 7.43973 16.2565 3.91406 11.985 3.91406C7.72102 3.91406 4.20288 7.43973 4.20288 11.7037C4.20288 15.9676 7.72855 19.4933 11.9925 19.4933ZM12.8363 14.1822C12.324 14.7246 11.6686 14.7246 11.1563 14.1822L8.16549 10.9955C7.90182 10.7168 7.89429 10.3025 8.13536 10.0539C8.4141 9.77511 8.84351 9.77511 9.09964 10.0463L12 13.1275L14.9004 10.0463C15.149 9.77511 15.5709 9.78265 15.8572 10.0539C16.1058 10.2949 16.0982 10.7168 15.827 10.9955L12.8363 14.1822Z" fill="#E3E5E6"/>
</svg>
