<svg width="24" height="25" viewBox="0 0 24 25" fill="none" xmlns="http://www.w3.org/2000/svg">
<path d="M11.9925 20.2076C16.264 20.2076 19.7897 16.6819 19.7897 12.418C19.7897 8.15402 16.2565 4.62835 11.985 4.62835C7.72102 4.62835 4.20288 8.15402 4.20288 12.418C4.20288 16.6819 7.72855 20.2076 11.9925 20.2076ZM12.8287 10.1429L15.827 13.3295C16.0907 13.6083 16.0982 14.0301 15.8496 14.2637C15.5709 14.5424 15.149 14.5424 14.8929 14.2712L11.9925 11.19L9.09211 14.2712C8.83597 14.5424 8.4141 14.5424 8.13536 14.2637C7.89429 14.0301 7.89429 13.6083 8.16549 13.3295L11.1563 10.1429C11.661 9.60045 12.324 9.60045 12.8287 10.1429Z" fill="#E3E5E6"/>
</svg>
