<svg width="183" height="183" viewBox="0 0 183 183" fill="none" xmlns="http://www.w3.org/2000/svg">
<g filter="url(#filter0_d_410_10459)">
<circle cx="91.142" cy="91.142" r="87.142" fill="#EBC553" fill-opacity="0.5" shape-rendering="crispEdges"/>
</g>
<circle cx="91.425" cy="91.1419" r="78.105" fill="#EBC553"/>
<path d="M91.142 54.3926V95.6161L89.2055 97.8678C86.5186 100.986 84.3159 100.144 84.3159 95.9873V78.1716H76.8362C73.4473 78.1716 72.5033 76.0436 74.7545 73.4455L91.142 54.3926Z" fill="white"/>
<path opacity="0.4" d="M107.53 76.5634L91.1421 95.6163V54.3927L93.0786 52.141C95.7655 49.0233 97.9682 49.8646 97.9682 54.0216V71.8373H105.448C108.837 71.8373 109.781 73.9652 107.53 76.5634Z" fill="white"/>
<path d="M54.2441 133.038C53.5358 133.038 52.8787 132.912 52.2729 132.66C51.6764 132.399 51.1545 132.041 50.7071 131.584C50.2598 131.118 49.9149 130.582 49.6726 129.976C49.4303 129.361 49.3091 128.704 49.3091 128.005C49.3091 127.306 49.4303 126.654 49.6726 126.048C49.9149 125.433 50.2598 124.897 50.7071 124.44C51.1545 123.983 51.6764 123.625 52.2729 123.364C52.8787 123.103 53.5358 122.972 54.2441 122.972C55.0363 122.972 55.7213 123.103 56.2991 123.364C56.877 123.625 57.3896 123.979 57.8369 124.426L56.7465 125.517C56.4576 125.2 56.1034 124.953 55.684 124.776C55.2739 124.598 54.794 124.51 54.2441 124.51C53.7594 124.51 53.3167 124.594 52.916 124.762C52.5152 124.929 52.1657 125.172 51.8675 125.489C51.5786 125.796 51.3549 126.164 51.1964 126.593C51.038 127.022 50.9588 127.492 50.9588 128.005C50.9588 128.518 51.038 128.988 51.1964 129.417C51.3549 129.846 51.5786 130.218 51.8675 130.535C52.1657 130.843 52.5152 131.081 52.916 131.248C53.3167 131.416 53.7594 131.5 54.2441 131.5C54.8406 131.5 55.3438 131.411 55.7539 131.234C56.1733 131.048 56.5275 130.796 56.8164 130.479L57.9068 131.57C57.4595 132.027 56.9329 132.385 56.3271 132.646C55.7213 132.907 55.027 133.038 54.2441 133.038ZM63.4471 133.038C62.7481 133.038 62.0957 132.907 61.4899 132.646C60.8841 132.385 60.3528 132.027 59.8962 131.57C59.4395 131.104 59.0807 130.568 58.8197 129.962C58.5681 129.347 58.4422 128.69 58.4422 127.991C58.4422 127.292 58.5681 126.64 58.8197 126.034C59.0807 125.428 59.4348 124.897 59.8822 124.44C60.3389 123.974 60.8654 123.615 61.4619 123.364C62.0677 123.103 62.7201 122.972 63.4191 122.972C64.1181 122.972 64.7659 123.103 65.3623 123.364C65.9681 123.615 66.4994 123.974 66.9561 124.44C67.4127 124.897 67.7669 125.433 68.0185 126.048C68.2795 126.654 68.41 127.306 68.41 128.005C68.41 128.704 68.2795 129.361 68.0185 129.976C67.7669 130.582 67.4127 131.113 66.9561 131.57C66.5087 132.027 65.9821 132.385 65.3763 132.646C64.7798 132.907 64.1368 133.038 63.4471 133.038ZM63.4191 131.5C64.0808 131.5 64.6587 131.351 65.1526 131.053C65.6559 130.754 66.0474 130.344 66.327 129.822C66.6159 129.291 66.7603 128.681 66.7603 127.991C66.7603 127.478 66.6765 127.012 66.5087 126.593C66.3503 126.164 66.1219 125.796 65.8237 125.489C65.5254 125.172 65.1713 124.929 64.7612 124.762C64.3604 124.594 63.9131 124.51 63.4191 124.51C62.7667 124.51 62.1889 124.659 61.6856 124.957C61.1916 125.246 60.8002 125.652 60.5113 126.174C60.2317 126.695 60.0919 127.301 60.0919 127.991C60.0919 128.504 60.1711 128.979 60.3295 129.417C60.4973 129.846 60.7256 130.214 61.0146 130.521C61.3128 130.829 61.667 131.071 62.077 131.248C62.4871 131.416 62.9345 131.5 63.4191 131.5ZM70.0449 132.898V123.112H71.1633L71.6526 124.957V132.898H70.0449ZM76.8252 132.898L70.9675 125.251L71.1633 123.112L77.0209 130.759L76.8252 132.898ZM76.8252 132.898L76.3359 131.178V123.112H77.9436V132.898H76.8252ZM80.0657 132.898V123.112H81.1841L81.6734 124.957V132.898H80.0657ZM86.846 132.898L80.9884 125.251L81.1841 123.112L87.0417 130.759L86.846 132.898ZM86.846 132.898L86.3567 131.178V123.112H87.9644V132.898H86.846ZM90.0865 132.898V123.112H91.6942V132.898H90.0865ZM91.1909 132.898V131.43H96.6711V132.898H91.1909ZM91.1909 128.606V127.194H96.1958V128.606H91.1909ZM91.1909 124.58V123.112H96.6012V124.58H91.1909ZM102.587 133.038C101.879 133.038 101.222 132.912 100.616 132.66C100.019 132.399 99.4975 132.041 99.0501 131.584C98.6027 131.118 98.2579 130.582 98.0156 129.976C97.7733 129.361 97.6521 128.704 97.6521 128.005C97.6521 127.306 97.7733 126.654 98.0156 126.048C98.2579 125.433 98.6027 124.897 99.0501 124.44C99.4975 123.983 100.019 123.625 100.616 123.364C101.222 123.103 101.879 122.972 102.587 122.972C103.379 122.972 104.064 123.103 104.642 123.364C105.22 123.625 105.733 123.979 106.18 124.426L105.089 125.517C104.801 125.2 104.446 124.953 104.027 124.776C103.617 124.598 103.137 124.51 102.587 124.51C102.102 124.51 101.66 124.594 101.259 124.762C100.858 124.929 100.509 125.172 100.21 125.489C99.9215 125.796 99.6978 126.164 99.5394 126.593C99.381 127.022 99.3017 127.492 99.3017 128.005C99.3017 128.518 99.381 128.988 99.5394 129.417C99.6978 129.846 99.9215 130.218 100.21 130.535C100.509 130.843 100.858 131.081 101.259 131.248C101.66 131.416 102.102 131.5 102.587 131.5C103.184 131.5 103.687 131.411 104.097 131.234C104.516 131.048 104.87 130.796 105.159 130.479L106.25 131.57C105.802 132.027 105.276 132.385 104.67 132.646C104.064 132.907 103.37 133.038 102.587 133.038ZM109.954 132.898V123.392H111.561V132.898H109.954ZM106.766 124.58V123.112H114.749V124.58H106.766ZM116.149 132.898V123.112H117.757V132.898H116.149ZM117.253 132.898V131.43H122.733V132.898H117.253ZM117.253 128.606V127.194H122.258V128.606H117.253ZM117.253 124.58V123.112H122.664V124.58H117.253ZM125.499 132.898V131.43H128.072C128.743 131.43 129.33 131.286 129.833 130.997C130.346 130.708 130.742 130.307 131.021 129.794C131.31 129.272 131.455 128.671 131.455 127.991C131.455 127.32 131.31 126.728 131.021 126.216C130.732 125.703 130.332 125.302 129.819 125.013C129.316 124.724 128.733 124.58 128.072 124.58H125.499V123.112H128.114C128.822 123.112 129.479 123.238 130.085 123.489C130.691 123.732 131.217 124.077 131.664 124.524C132.121 124.962 132.475 125.479 132.727 126.076C132.979 126.663 133.104 127.306 133.104 128.005C133.104 128.695 132.979 129.338 132.727 129.934C132.475 130.531 132.126 131.053 131.678 131.5C131.231 131.938 130.704 132.283 130.099 132.534C129.493 132.777 128.84 132.898 128.141 132.898H125.499ZM124.395 132.898V123.112H126.003V132.898H124.395Z" fill="white"/>
<defs>
<filter id="filter0_d_410_10459" x="0.272" y="0.272" width="181.74" height="181.74" filterUnits="userSpaceOnUse" color-interpolation-filters="sRGB">
<feFlood flood-opacity="0" result="BackgroundImageFix"/>
<feColorMatrix in="SourceAlpha" type="matrix" values="0 0 0 0 0 0 0 0 0 0 0 0 0 0 0 0 0 0 127 0" result="hardAlpha"/>
<feOffset/>
<feGaussianBlur stdDeviation="1.864"/>
<feComposite in2="hardAlpha" operator="out"/>
<feColorMatrix type="matrix" values="0 0 0 0 0 0 0 0 0 0 0 0 0 0 0 0 0 0 0.25 0"/>
<feBlend mode="normal" in2="BackgroundImageFix" result="effect1_dropShadow_410_10459"/>
<feBlend mode="normal" in="SourceGraphic" in2="effect1_dropShadow_410_10459" result="shape"/>
</filter>
</defs>
</svg>
