<svg width="183" height="183" viewBox="0 0 183 183" fill="none" xmlns="http://www.w3.org/2000/svg">
<g filter="url(#filter0_d_410_10448)">
<circle cx="91.142" cy="91.142" r="87.142" fill="#9490B0" fill-opacity="0.5" shape-rendering="crispEdges"/>
</g>
<circle cx="91.4251" cy="91.1419" r="78.105" fill="#9490B0"/>
<path d="M91.1421 54.3926V95.6161L89.2056 97.8678C86.5188 100.986 84.316 100.144 84.316 95.9873V78.1716H76.8363C73.4475 78.1716 72.5034 76.0436 74.7546 73.4455L91.1421 54.3926Z" fill="white"/>
<path opacity="0.4" d="M107.53 76.5634L91.1422 95.6163V54.3927L93.0786 52.141C95.7655 49.0233 97.9683 49.8646 97.9683 54.0216V71.8373H105.448C108.837 71.8373 109.781 73.9652 107.53 76.5634Z" fill="white"/>
<path d="M63.5642 133.038C62.8558 133.038 62.1988 132.912 61.593 132.66C60.9965 132.399 60.4746 132.041 60.0272 131.584C59.5799 131.118 59.235 130.582 58.9927 129.976C58.7504 129.361 58.6292 128.704 58.6292 128.005C58.6292 127.306 58.7504 126.654 58.9927 126.048C59.235 125.433 59.5799 124.897 60.0272 124.44C60.4746 123.983 60.9965 123.625 61.593 123.364C62.1988 123.103 62.8558 122.972 63.5642 122.972C64.3564 122.972 65.0414 123.103 65.6192 123.364C66.1971 123.625 66.7097 123.979 67.157 124.426L66.0666 125.517C65.7777 125.2 65.4235 124.953 65.0041 124.776C64.594 124.598 64.114 124.51 63.5642 124.51C63.0795 124.51 62.6368 124.594 62.2361 124.762C61.8353 124.929 61.4858 125.172 61.1876 125.489C60.8986 125.796 60.675 126.164 60.5165 126.593C60.3581 127.022 60.2789 127.492 60.2789 128.005C60.2789 128.518 60.3581 128.988 60.5165 129.417C60.675 129.846 60.8986 130.218 61.1876 130.535C61.4858 130.843 61.8353 131.081 62.2361 131.248C62.6368 131.416 63.0795 131.5 63.5642 131.5C64.1606 131.5 64.6639 131.411 65.074 131.234C65.4934 131.048 65.8476 130.796 66.1365 130.479L67.2269 131.57C66.7796 132.027 66.253 132.385 65.6472 132.646C65.0414 132.907 64.347 133.038 63.5642 133.038ZM72.7671 133.038C72.0681 133.038 71.4157 132.907 70.8099 132.646C70.2041 132.385 69.6729 132.027 69.2162 131.57C68.7595 131.104 68.4007 130.568 68.1398 129.962C67.8881 129.347 67.7623 128.69 67.7623 127.991C67.7623 127.292 67.8881 126.64 68.1398 126.034C68.4007 125.428 68.7549 124.897 69.2022 124.44C69.6589 123.974 70.1855 123.615 70.782 123.364C71.3878 123.103 72.0402 122.972 72.7392 122.972C73.4382 122.972 74.0859 123.103 74.6824 123.364C75.2882 123.615 75.8194 123.974 76.2761 124.44C76.7328 124.897 77.087 125.433 77.3386 126.048C77.5996 126.654 77.73 127.306 77.73 128.005C77.73 128.704 77.5996 129.361 77.3386 129.976C77.087 130.582 76.7328 131.113 76.2761 131.57C75.8288 132.027 75.3022 132.385 74.6964 132.646C74.0999 132.907 73.4568 133.038 72.7671 133.038ZM72.7392 131.5C73.4009 131.5 73.9787 131.351 74.4727 131.053C74.976 130.754 75.3674 130.344 75.647 129.822C75.9359 129.291 76.0804 128.681 76.0804 127.991C76.0804 127.478 75.9965 127.012 75.8288 126.593C75.6703 126.164 75.442 125.796 75.1437 125.489C74.8455 125.172 74.4913 124.929 74.0813 124.762C73.6805 124.594 73.2331 124.51 72.7392 124.51C72.0868 124.51 71.5089 124.659 71.0057 124.957C70.5117 125.246 70.1203 125.652 69.8313 126.174C69.5517 126.695 69.4119 127.301 69.4119 127.991C69.4119 128.504 69.4912 128.979 69.6496 129.417C69.8174 129.846 70.0457 130.214 70.3346 130.521C70.6329 130.829 70.987 131.071 71.3971 131.248C71.8072 131.416 72.2545 131.5 72.7392 131.5ZM79.3649 132.898V123.112H80.4833L80.9726 124.957V132.898H79.3649ZM86.1452 132.898L80.2876 125.251L80.4833 123.112L86.341 130.759L86.1452 132.898ZM86.1452 132.898L85.6559 131.178V123.112H87.2636V132.898H86.1452ZM89.3858 132.898V123.112H90.5042L90.9935 124.957V132.898H89.3858ZM96.1661 132.898L90.3084 125.251L90.5042 123.112L96.3618 130.759L96.1661 132.898ZM96.1661 132.898L95.6768 131.178V123.112H97.2845V132.898H96.1661ZM99.4066 132.898V123.112H101.014V132.898H99.4066ZM100.511 132.898V131.43H105.991V132.898H100.511ZM100.511 128.606V127.194H105.516V128.606H100.511ZM100.511 124.58V123.112H105.921V124.58H100.511ZM111.907 133.038C111.199 133.038 110.542 132.912 109.936 132.66C109.339 132.399 108.818 132.041 108.37 131.584C107.923 131.118 107.578 130.582 107.336 129.976C107.093 129.361 106.972 128.704 106.972 128.005C106.972 127.306 107.093 126.654 107.336 126.048C107.578 125.433 107.923 124.897 108.37 124.44C108.818 123.983 109.339 123.625 109.936 123.364C110.542 123.103 111.199 122.972 111.907 122.972C112.699 122.972 113.384 123.103 113.962 123.364C114.54 123.625 115.053 123.979 115.5 124.426L114.41 125.517C114.121 125.2 113.766 124.953 113.347 124.776C112.937 124.598 112.457 124.51 111.907 124.51C111.422 124.51 110.98 124.594 110.579 124.762C110.178 124.929 109.829 125.172 109.53 125.489C109.242 125.796 109.018 126.164 108.859 126.593C108.701 127.022 108.622 127.492 108.622 128.005C108.622 128.518 108.701 128.988 108.859 129.417C109.018 129.846 109.242 130.218 109.53 130.535C109.829 130.843 110.178 131.081 110.579 131.248C110.98 131.416 111.422 131.5 111.907 131.5C112.504 131.5 113.007 131.411 113.417 131.234C113.836 131.048 114.19 130.796 114.479 130.479L115.57 131.57C115.122 132.027 114.596 132.385 113.99 132.646C113.384 132.907 112.69 133.038 111.907 133.038ZM119.274 132.898V123.392H120.881V132.898H119.274ZM116.086 124.58V123.112H124.069V124.58H116.086Z" fill="white"/>
<defs>
<filter id="filter0_d_410_10448" x="0.272" y="0.272" width="181.74" height="181.74" filterUnits="userSpaceOnUse" color-interpolation-filters="sRGB">
<feFlood flood-opacity="0" result="BackgroundImageFix"/>
<feColorMatrix in="SourceAlpha" type="matrix" values="0 0 0 0 0 0 0 0 0 0 0 0 0 0 0 0 0 0 127 0" result="hardAlpha"/>
<feOffset/>
<feGaussianBlur stdDeviation="1.864"/>
<feComposite in2="hardAlpha" operator="out"/>
<feColorMatrix type="matrix" values="0 0 0 0 0 0 0 0 0 0 0 0 0 0 0 0 0 0 0.25 0"/>
<feBlend mode="normal" in2="BackgroundImageFix" result="effect1_dropShadow_410_10448"/>
<feBlend mode="normal" in="SourceGraphic" in2="effect1_dropShadow_410_10448" result="shape"/>
</filter>
</defs>
</svg>
