<svg width="175" height="175" viewBox="0 0 175 175" fill="none" xmlns="http://www.w3.org/2000/svg">
<circle cx="87.105" cy="87.1419" r="78.105" fill="#9490B0"/>
<path d="M87.1422 50.3926V91.6161L85.2057 93.8678C82.5188 96.9856 80.3161 96.1443 80.3161 91.9873V74.1716H72.8364C69.4475 74.1716 68.5035 72.0436 70.7547 69.4455L87.1422 50.3926Z" fill="white"/>
<path opacity="0.4" d="M103.53 72.5634L87.1422 91.6163V50.3927L89.0787 48.141C91.7656 45.0233 93.9683 45.8646 93.9683 50.0216V67.8373H101.448C104.837 67.8373 105.781 69.9652 103.53 72.5634Z" fill="white"/>
<path d="M47.5081 129.038C46.7998 129.038 46.1427 128.912 45.5369 128.66C44.9405 128.399 44.4185 128.041 43.9712 127.584C43.5238 127.118 43.179 126.582 42.9367 125.976C42.6943 125.361 42.5732 124.704 42.5732 124.005C42.5732 123.306 42.6943 122.654 42.9367 122.048C43.179 121.433 43.5238 120.897 43.9712 120.44C44.4185 119.983 44.9405 119.625 45.5369 119.364C46.1427 119.103 46.7998 118.972 47.5081 118.972C48.3003 118.972 48.9853 119.103 49.5632 119.364C50.141 119.625 50.6536 119.979 51.101 120.426L50.0105 121.517C49.7216 121.2 49.3675 120.953 48.9481 120.776C48.538 120.598 48.058 120.51 47.5081 120.51C47.0235 120.51 46.5808 120.594 46.18 120.762C45.7793 120.929 45.4298 121.172 45.1315 121.489C44.8426 121.796 44.6189 122.164 44.4605 122.593C44.302 123.022 44.2228 123.492 44.2228 124.005C44.2228 124.518 44.302 124.988 44.4605 125.417C44.6189 125.846 44.8426 126.218 45.1315 126.535C45.4298 126.843 45.7793 127.081 46.18 127.248C46.5808 127.416 47.0235 127.5 47.5081 127.5C48.1046 127.5 48.6079 127.411 49.018 127.234C49.4374 127.048 49.7915 126.796 50.0804 126.479L51.1709 127.57C50.7235 128.027 50.1969 128.385 49.5911 128.646C48.9853 128.907 48.291 129.038 47.5081 129.038ZM56.7111 129.038C56.0121 129.038 55.3597 128.907 54.7539 128.646C54.1481 128.385 53.6169 128.027 53.1602 127.57C52.7035 127.104 52.3447 126.568 52.0837 125.962C51.8321 125.347 51.7063 124.69 51.7063 123.991C51.7063 123.292 51.8321 122.64 52.0837 122.034C52.3447 121.428 52.6988 120.897 53.1462 120.44C53.6029 119.974 54.1295 119.615 54.7259 119.364C55.3317 119.103 55.9841 118.972 56.6832 118.972C57.3822 118.972 58.0299 119.103 58.6264 119.364C59.2322 119.615 59.7634 119.974 60.2201 120.44C60.6768 120.897 61.0309 121.433 61.2826 122.048C61.5435 122.654 61.674 123.306 61.674 124.005C61.674 124.704 61.5435 125.361 61.2826 125.976C61.0309 126.582 60.6768 127.113 60.2201 127.57C59.7727 128.027 59.2461 128.385 58.6403 128.646C58.0439 128.907 57.4008 129.038 56.7111 129.038ZM56.6832 127.5C57.3449 127.5 57.9227 127.351 58.4167 127.053C58.9199 126.754 59.3114 126.344 59.591 125.822C59.8799 125.291 60.0244 124.681 60.0244 123.991C60.0244 123.478 59.9405 123.012 59.7727 122.593C59.6143 122.164 59.3859 121.796 59.0877 121.489C58.7895 121.172 58.4353 120.929 58.0252 120.762C57.6245 120.594 57.1771 120.51 56.6832 120.51C56.0307 120.51 55.4529 120.659 54.9496 120.957C54.4557 121.246 54.0642 121.652 53.7753 122.174C53.4957 122.695 53.3559 123.301 53.3559 123.991C53.3559 124.504 53.4351 124.979 53.5936 125.417C53.7613 125.846 53.9897 126.214 54.2786 126.521C54.5768 126.829 54.931 127.071 55.3411 127.248C55.7511 127.416 56.1985 127.5 56.6832 127.5ZM63.3089 128.898V119.112H64.4273L64.9166 120.957V128.898H63.3089ZM70.0892 128.898L64.2316 121.251L64.4273 119.112L70.2849 126.759L70.0892 128.898ZM70.0892 128.898L69.5999 127.178V119.112H71.2076V128.898H70.0892ZM73.3297 128.898V119.112H74.4481L74.9374 120.957V128.898H73.3297ZM80.11 128.898L74.2524 121.251L74.4481 119.112L80.3057 126.759L80.11 128.898ZM80.11 128.898L79.6207 127.178V119.112H81.2284V128.898H80.11ZM83.3505 128.898V119.112H84.9582V128.898H83.3505ZM84.455 128.898V127.43H89.9351V128.898H84.455ZM84.455 124.606V123.194H89.4598V124.606H84.455ZM84.455 120.58V119.112H89.8652V120.58H84.455ZM95.8511 129.038C95.1427 129.038 94.4857 128.912 93.8799 128.66C93.2834 128.399 92.7615 128.041 92.3141 127.584C91.8668 127.118 91.5219 126.582 91.2796 125.976C91.0373 125.361 90.9161 124.704 90.9161 124.005C90.9161 123.306 91.0373 122.654 91.2796 122.048C91.5219 121.433 91.8668 120.897 92.3141 120.44C92.7615 119.983 93.2834 119.625 93.8799 119.364C94.4857 119.103 95.1427 118.972 95.8511 118.972C96.6433 118.972 97.3283 119.103 97.9061 119.364C98.484 119.625 98.9966 119.979 99.4439 120.426L98.3535 121.517C98.0646 121.2 97.7104 120.953 97.291 120.776C96.8809 120.598 96.4009 120.51 95.8511 120.51C95.3664 120.51 94.9237 120.594 94.523 120.762C94.1222 120.929 93.7727 121.172 93.4745 121.489C93.1855 121.796 92.9619 122.164 92.8034 122.593C92.645 123.022 92.5658 123.492 92.5658 124.005C92.5658 124.518 92.645 124.988 92.8034 125.417C92.9619 125.846 93.1855 126.218 93.4745 126.535C93.7727 126.843 94.1222 127.081 94.523 127.248C94.9237 127.416 95.3664 127.5 95.8511 127.5C96.4475 127.5 96.9508 127.411 97.3609 127.234C97.7803 127.048 98.1345 126.796 98.4234 126.479L99.5138 127.57C99.0665 128.027 98.5399 128.385 97.9341 128.646C97.3283 128.907 96.6339 129.038 95.8511 129.038ZM103.218 128.898V119.392H104.825V128.898H103.218ZM100.03 120.58V119.112H108.013V120.58H100.03ZM109.413 128.898V119.112H111.021V128.898H109.413ZM113.14 128.898V119.112H114.258L114.748 120.957V128.898H113.14ZM119.92 128.898L114.063 121.251L114.258 119.112L120.116 126.759L119.92 128.898ZM119.92 128.898L119.431 127.178V119.112H121.039V128.898H119.92ZM127.578 129.038C126.907 129.038 126.274 128.907 125.677 128.646C125.081 128.385 124.559 128.027 124.111 127.57C123.664 127.104 123.31 126.568 123.049 125.962C122.797 125.347 122.671 124.69 122.671 123.991C122.671 123.292 122.797 122.64 123.049 122.034C123.31 121.428 123.664 120.897 124.111 120.44C124.568 119.974 125.099 119.615 125.705 119.364C126.32 119.103 126.982 118.972 127.69 118.972C128.464 118.972 129.181 119.121 129.843 119.42C130.505 119.718 131.059 120.142 131.507 120.692L130.416 121.782C130.127 121.372 129.741 121.06 129.256 120.845C128.771 120.622 128.249 120.51 127.69 120.51C127.019 120.51 126.427 120.659 125.915 120.957C125.412 121.246 125.02 121.652 124.741 122.174C124.461 122.695 124.321 123.301 124.321 123.991C124.321 124.681 124.461 125.291 124.741 125.822C125.029 126.344 125.416 126.754 125.901 127.053C126.385 127.351 126.935 127.5 127.55 127.5C128.203 127.5 128.762 127.383 129.228 127.15C129.703 126.908 130.067 126.554 130.319 126.088C130.57 125.613 130.696 125.03 130.696 124.34L131.703 125.067H127.523V123.6H132.36V123.823C132.36 124.988 132.15 125.957 131.731 126.731C131.32 127.505 130.757 128.082 130.039 128.465C129.321 128.847 128.501 129.038 127.578 129.038Z" fill="white"/>
</svg>
