<svg width="336" height="111" viewBox="0 0 336 111" fill="none" xmlns="http://www.w3.org/2000/svg">
<rect x="37" y="57" width="268" height="54" rx="8" fill="#6F6F6F"/>
<rect x="21" y="42" width="299" height="60" rx="8" fill="#F7F7F7"/>
<rect y="28" width="335.627" height="64" rx="8" fill="#F7F7F7"/>
<path d="M45 44.125C42.0625 42.3125 38.6875 41.25 35 41.25V44.125H45Z" fill="#E7405C"/>
<path d="M35 47H48.5C47.4375 45.9375 46.25 44.9375 45 44.125H35V47Z" fill="#EEEEEE"/>
<path d="M35 49.875H50.8125C50.125 48.8125 49.375 47.875 48.5625 47H35V49.875Z" fill="#E7405C"/>
<path d="M35 52.75H52.3125C51.875 51.75 51.375 50.75 50.8125 49.875H35V52.75Z" fill="#EEEEEE"/>
<path d="M35 55.625H53.25C53 54.625 52.6875 53.6875 52.3125 52.75H35V55.625Z" fill="#E7405C"/>
<path d="M35 58.5625H53.6875C53.625 57.5625 53.4375 56.625 53.25 55.6875H35V58.5625" fill="#EEEEEE"/>
<path d="M53.6875 58.5625H35V60H16.25C16.25 60.5 16.25 60.9375 16.3125 61.4375H53.6875C53.75 60.9375 53.75 60.5 53.75 60C53.75 59.5 53.75 59 53.6875 58.5625" fill="#E7405C"/>
<path d="M16.75 64.3125H53.25C53.5 63.375 53.625 62.4375 53.6875 61.4375H16.3125C16.375 62.375 16.5625 63.375 16.75 64.3125Z" fill="#EEEEEE"/>
<path d="M17.6875 67.1875H52.3125C52.6875 66.25 53 65.3125 53.25 64.3125H16.75C17 65.3125 17.3125 66.25 17.6875 67.1875Z" fill="#E7405C"/>
<path d="M19.1875 70.0625H50.8125C51.375 69.125 51.875 68.1875 52.3125 67.1875H17.6875C18.125 68.1875 18.625 69.125 19.1875 70.0625" fill="#EEEEEE"/>
<path d="M21.4375 72.9375H48.5625C49.375 72.0625 50.1875 71.0625 50.8125 70.0625H19.1875C19.8125 71.125 20.625 72.0625 21.4375 72.9375Z" fill="#E7405C"/>
<path d="M24.9375 75.8125H45.0625C46.375 75 47.5 74 48.5625 72.9375H21.4375C22.5 74.0625 23.6875 75 24.9375 75.8125Z" fill="#EEEEEE"/>
<path d="M35 78.75C38.6875 78.75 42.125 77.6875 45.0625 75.8125H24.9375C27.875 77.6875 31.3125 78.75 35 78.75Z" fill="#E7405C"/>
<path d="M25 44.125C23.6875 44.9375 22.5 45.9375 21.4375 47C20.5625 47.875 19.8125 48.875 19.1875 49.875C18.625 50.8125 18.0625 51.75 17.6875 52.75C17.3125 53.6875 17 54.625 16.75 55.625C16.5 56.5625 16.375 57.5 16.3125 58.5C16.25 59 16.25 59.5 16.25 60H35V41.25C31.3125 41.25 27.9375 42.3125 25 44.125Z" fill="#1760BE"/>
<path d="M30.625 41.875L30.9375 42.8125H31.875L31.125 43.4375L31.375 44.375L30.625 43.8125L29.875 44.375L30.125 43.4375L29.375 42.8125H30.3125L30.625 41.875Z" fill="#EEEEEE"/>
<path d="M33.125 45.625L33.4375 46.5625H34.375L33.625 47.1875L33.875 48.125L33.125 47.5625L32.375 48.125L32.625 47.1875L31.875 46.5625H32.8125L33.125 45.625Z" fill="#EEEEEE"/>
<path d="M28.125 45.625L28.4375 46.5625H29.375L28.625 47.1875L28.875 48.125L28.125 47.5625L27.375 48.125L27.625 47.1875L26.875 46.5625H27.8125L28.125 45.625Z" fill="#EEEEEE"/>
<path d="M30.625 49.375L30.9375 50.3125H31.875L31.125 50.9375L31.375 51.875L30.625 51.3125L29.875 51.875L30.125 50.9375L29.375 50.3125H30.3125L30.625 49.375Z" fill="#EEEEEE"/>
<path d="M25.625 49.375L25.9375 50.3125H26.875L26.125 50.9375L26.375 51.875L25.625 51.3125L24.875 51.875L25.125 50.9375L24.375 50.3125H25.3125L25.625 49.375Z" fill="#EEEEEE"/>
<path d="M20.625 49.375L20.9375 50.3125H21.875L21.125 50.9375L21.375 51.875L20.625 51.3125L19.875 51.875L20.125 50.9375L19.375 50.3125H20.3125L20.625 49.375Z" fill="#EEEEEE"/>
<path d="M33.125 53.125L33.4375 54.0625H34.375L33.625 54.6875L33.875 55.625L33.125 55.0625L32.375 55.625L32.625 54.6875L31.875 54.0625H32.8125L33.125 53.125Z" fill="#EEEEEE"/>
<path d="M28.125 53.125L28.4375 54.0625H29.375L28.625 54.6875L28.875 55.625L28.125 55.0625L27.375 55.625L27.625 54.6875L26.875 54.0625H27.8125L28.125 53.125Z" fill="#EEEEEE"/>
<path d="M23.125 53.125L23.4375 54.0625H24.375L23.625 54.6875L23.875 55.625L23.125 55.0625L22.375 55.625L22.625 54.6875L21.875 54.0625H22.8125L23.125 53.125Z" fill="#EEEEEE"/>
<path d="M30.625 56.875L30.9375 57.8125H31.875L31.125 58.4375L31.375 59.375L30.625 58.8125L29.875 59.375L30.125 58.4375L29.375 57.8125H30.3125L30.625 56.875Z" fill="#EEEEEE"/>
<path d="M25.625 56.875L25.9375 57.8125H26.875L26.125 58.4375L26.375 59.375L25.625 58.8125L24.875 59.375L25.125 58.4375L24.375 57.8125H25.3125L25.625 56.875Z" fill="#EEEEEE"/>
<path d="M20.625 56.875L20.9375 57.8125H21.875L21.125 58.4375L21.375 59.375L20.625 58.8125L19.875 59.375L20.125 58.4375L19.375 57.8125H20.3125L20.625 56.875Z" fill="#EEEEEE"/>
<path d="M22.375 48.125L23.125 47.5625L23.875 48.125L23.5625 47.1875L24.3125 46.5625H23.375L23.125 45.625L22.8125 46.5625H21.9375L22.6875 47.125L22.375 48.125" fill="#EEEEEE"/>
<path d="M17.375 55.625L18.125 55.0625L18.875 55.625L18.5625 54.6875L19.3125 54.0625H18.4375L18.125 53.125L17.8125 54.0625H17.1875C17.1875 54.125 17.125 54.1875 17.125 54.25L17.625 54.625L17.375 55.625" fill="#EEEEEE"/>
<path d="M70.632 56.176C69.704 56.176 68.8827 55.9787 68.168 55.584C67.464 55.1787 66.9093 54.6293 66.504 53.936C66.1093 53.2427 65.912 52.448 65.912 51.552V44.704H68.44V51.696C68.44 52.3787 68.648 52.9173 69.064 53.312C69.4907 53.696 70.0133 53.888 70.632 53.888C71.2613 53.888 71.7787 53.696 72.184 53.312C72.5893 52.9173 72.792 52.384 72.792 51.712V44.704H75.32V51.568C75.32 52.464 75.1227 53.2587 74.728 53.952C74.3333 54.6453 73.784 55.1893 73.08 55.584C72.376 55.9787 71.56 56.176 70.632 56.176ZM77.0984 56V48.224H79.5464V48.848C80.1224 48.3253 80.8477 48.064 81.7224 48.064C82.2877 48.064 82.7944 48.2027 83.2424 48.48C83.6904 48.7467 84.0424 49.104 84.2984 49.552C84.5544 50 84.6824 50.4907 84.6824 51.024V56H82.2344V51.568C82.2344 51.1627 82.1064 50.8373 81.8504 50.592C81.605 50.336 81.2904 50.208 80.9064 50.208C80.5117 50.208 80.1864 50.336 79.9304 50.592C79.6744 50.8373 79.5464 51.1627 79.5464 51.568V56H77.0984ZM87.4866 47.152C87.1026 47.152 86.7826 47.024 86.5266 46.768C86.2813 46.5013 86.1586 46.1813 86.1586 45.808C86.1586 45.4347 86.2813 45.12 86.5266 44.864C86.7826 44.5973 87.1026 44.464 87.4866 44.464C87.8706 44.464 88.1853 44.5973 88.4306 44.864C88.676 45.12 88.7986 45.4347 88.7986 45.808C88.7986 46.1813 88.676 46.5013 88.4306 46.768C88.1853 47.024 87.8706 47.152 87.4866 47.152ZM86.2546 56V48.224H88.7026V56H86.2546ZM91.5305 56V50.304H89.7705V48.224H91.5305V45.008H93.9785V48.224H95.7385V50.304H93.9785V56H91.5305ZM100.501 56.176C99.6582 56.176 98.9062 56.0053 98.2449 55.664C97.5942 55.312 97.0822 54.832 96.7089 54.224C96.3355 53.6053 96.1489 52.9013 96.1489 52.112C96.1489 51.3333 96.3302 50.64 96.6929 50.032C97.0662 49.424 97.5675 48.944 98.1969 48.592C98.8262 48.2293 99.5355 48.048 100.325 48.048C101.082 48.048 101.754 48.2187 102.341 48.56C102.938 48.8907 103.402 49.3493 103.733 49.936C104.074 50.512 104.245 51.1787 104.245 51.936C104.245 52.224 104.208 52.5493 104.133 52.912L98.5649 52.928C98.6929 53.3653 98.9222 53.7013 99.2529 53.936C99.5835 54.1707 99.9942 54.288 100.485 54.288C101.264 54.288 101.882 54.0213 102.341 53.488L103.685 54.832C103.301 55.28 102.837 55.616 102.293 55.84C101.749 56.064 101.152 56.176 100.501 56.176ZM100.341 49.92C99.8929 49.92 99.5142 50.0373 99.2049 50.272C98.8955 50.5067 98.6822 50.832 98.5649 51.248L101.957 51.232C101.754 50.3573 101.216 49.92 100.341 49.92ZM108.499 56.16C107.805 56.16 107.192 55.984 106.659 55.632C106.125 55.2693 105.709 54.784 105.411 54.176C105.112 53.5573 104.963 52.8693 104.963 52.112C104.963 51.3547 105.112 50.672 105.411 50.064C105.709 49.4453 106.125 48.96 106.659 48.608C107.192 48.2453 107.805 48.064 108.499 48.064C108.989 48.064 109.416 48.144 109.779 48.304C110.152 48.464 110.461 48.688 110.707 48.976V44.384H113.123V56H110.707V55.264C110.461 55.5413 110.152 55.76 109.779 55.92C109.416 56.08 108.989 56.16 108.499 56.16ZM109.123 53.888C109.635 53.888 110.045 53.7173 110.355 53.376C110.664 53.0347 110.819 52.592 110.819 52.048C110.819 51.504 110.664 51.0613 110.355 50.72C110.045 50.368 109.635 50.192 109.123 50.192C108.621 50.192 108.216 50.368 107.907 50.72C107.597 51.0613 107.443 51.504 107.443 52.048C107.443 52.592 107.597 53.0347 107.907 53.376C108.216 53.7173 108.621 53.888 109.123 53.888ZM121.511 56.176C120.583 56.176 119.783 56.0267 119.111 55.728C118.439 55.4293 117.831 54.9653 117.287 54.336L118.919 52.72C119.282 53.1467 119.682 53.472 120.119 53.696C120.557 53.92 121.074 54.032 121.671 54.032C122.205 54.032 122.615 53.936 122.903 53.744C123.202 53.552 123.351 53.2853 123.351 52.944C123.351 52.592 123.223 52.3093 122.967 52.096C122.711 51.8827 122.381 51.7067 121.975 51.568C121.581 51.4187 121.154 51.264 120.695 51.104C120.247 50.9333 119.821 50.7253 119.415 50.48C119.01 50.224 118.679 49.888 118.423 49.472C118.178 49.056 118.055 48.5173 118.055 47.856C118.055 47.1627 118.221 46.5707 118.551 46.08C118.893 45.5787 119.362 45.1947 119.959 44.928C120.557 44.6613 121.245 44.528 122.023 44.528C122.813 44.528 123.533 44.672 124.183 44.96C124.845 45.2373 125.389 45.6107 125.815 46.08L124.183 47.696C123.842 47.344 123.495 47.0827 123.143 46.912C122.802 46.7413 122.413 46.656 121.975 46.656C121.527 46.656 121.175 46.7413 120.919 46.912C120.674 47.072 120.551 47.3067 120.551 47.616C120.551 47.9467 120.674 48.208 120.919 48.4C121.175 48.592 121.506 48.7627 121.911 48.912C122.317 49.0507 122.743 49.2053 123.191 49.376C123.65 49.536 124.077 49.7493 124.471 50.016C124.877 50.272 125.207 50.6187 125.463 51.056C125.719 51.4827 125.847 52.0373 125.847 52.72C125.847 53.808 125.463 54.656 124.695 55.264C123.927 55.872 122.866 56.176 121.511 56.176ZM128.327 56V50.304H126.567V48.224H128.327V45.008H130.775V48.224H132.535V50.304H130.775V56H128.327ZM136.706 56.16C135.991 56.16 135.351 55.984 134.786 55.632C134.231 55.28 133.788 54.8 133.458 54.192C133.138 53.584 132.978 52.8907 132.978 52.112C132.978 51.344 133.138 50.656 133.458 50.048C133.788 49.4293 134.231 48.944 134.786 48.592C135.351 48.24 135.991 48.064 136.706 48.064C137.132 48.064 137.527 48.1387 137.89 48.288C138.263 48.4267 138.583 48.6187 138.85 48.864V48.224H141.25V56H138.85V55.36C138.583 55.616 138.263 55.8133 137.89 55.952C137.527 56.0907 137.132 56.16 136.706 56.16ZM137.202 53.952C137.724 53.952 138.146 53.7813 138.466 53.44C138.786 53.0987 138.946 52.656 138.946 52.112C138.946 51.568 138.786 51.1253 138.466 50.784C138.146 50.4427 137.73 50.272 137.218 50.272C136.706 50.272 136.284 50.448 135.954 50.8C135.623 51.1413 135.458 51.5787 135.458 52.112C135.458 52.656 135.618 53.0987 135.938 53.44C136.268 53.7813 136.69 53.952 137.202 53.952ZM144.077 56V50.304H142.317V48.224H144.077V45.008H146.525V48.224H148.285V50.304H146.525V56H144.077ZM153.048 56.176C152.205 56.176 151.453 56.0053 150.792 55.664C150.141 55.312 149.629 54.832 149.256 54.224C148.882 53.6053 148.696 52.9013 148.696 52.112C148.696 51.3333 148.877 50.64 149.24 50.032C149.613 49.424 150.114 48.944 150.744 48.592C151.373 48.2293 152.082 48.048 152.872 48.048C153.629 48.048 154.301 48.2187 154.888 48.56C155.485 48.8907 155.949 49.3493 156.28 49.936C156.621 50.512 156.792 51.1787 156.792 51.936C156.792 52.224 156.754 52.5493 156.68 52.912L151.112 52.928C151.24 53.3653 151.469 53.7013 151.8 53.936C152.13 54.1707 152.541 54.288 153.032 54.288C153.81 54.288 154.429 54.0213 154.888 53.488L156.232 54.832C155.848 55.28 155.384 55.616 154.84 55.84C154.296 56.064 153.698 56.176 153.048 56.176ZM152.888 49.92C152.44 49.92 152.061 50.0373 151.752 50.272C151.442 50.5067 151.229 50.832 151.112 51.248L154.504 51.232C154.301 50.3573 153.762 49.92 152.888 49.92ZM160.805 56.192C160.112 56.192 159.445 56.064 158.805 55.808C158.165 55.552 157.648 55.2 157.253 54.752L158.645 53.344C159.179 53.9307 159.867 54.224 160.709 54.224C161.307 54.224 161.605 54.064 161.605 53.744C161.605 53.552 161.509 53.408 161.317 53.312C161.136 53.2053 160.901 53.1147 160.613 53.04C160.325 52.9653 160.021 52.88 159.701 52.784C159.381 52.6773 159.077 52.5387 158.789 52.368C158.501 52.1973 158.267 51.9627 158.085 51.664C157.904 51.3653 157.813 50.976 157.813 50.496C157.813 49.76 158.091 49.1627 158.645 48.704C159.211 48.2347 159.973 48 160.933 48C161.595 48 162.203 48.1173 162.757 48.352C163.323 48.576 163.781 48.912 164.133 49.36L162.741 50.768C162.496 50.48 162.219 50.2773 161.909 50.16C161.611 50.0427 161.317 49.984 161.029 49.984C160.475 49.984 160.197 50.1387 160.197 50.448C160.197 50.6187 160.288 50.752 160.469 50.848C160.651 50.9333 160.885 51.0187 161.173 51.104C161.461 51.1787 161.765 51.2693 162.085 51.376C162.405 51.472 162.704 51.6107 162.981 51.792C163.269 51.9733 163.504 52.2187 163.685 52.528C163.877 52.8373 163.973 53.232 163.973 53.712C163.973 54.48 163.685 55.088 163.109 55.536C162.544 55.9733 161.776 56.192 160.805 56.192Z" fill="#292930"/>
<path d="M67.1413 74V64.284H68.0653L73.4693 71.494V64.284H74.7853V74H73.8613L68.4573 66.79V74H67.1413ZM79.9367 74.14C79.2647 74.14 78.6627 73.9907 78.1307 73.692C77.608 73.384 77.1927 72.9687 76.8847 72.446C76.5767 71.9233 76.4227 71.3307 76.4227 70.668C76.4227 70.0147 76.572 69.4267 76.8707 68.904C77.1787 68.3813 77.5894 67.9707 78.1027 67.672C78.6254 67.364 79.2087 67.21 79.8527 67.21C80.4594 67.21 80.996 67.35 81.4627 67.63C81.9387 67.91 82.312 68.2973 82.5827 68.792C82.8534 69.2867 82.9887 69.8467 82.9887 70.472C82.9887 70.6493 82.9654 70.8733 82.9187 71.144H77.7107C77.8134 71.704 78.0607 72.1473 78.4527 72.474C78.8447 72.7913 79.3394 72.95 79.9367 72.95C80.31 72.95 80.6507 72.8847 80.9587 72.754C81.276 72.6233 81.5467 72.4273 81.7707 72.166L82.5827 72.992C82.256 73.3653 81.864 73.65 81.4067 73.846C80.9494 74.042 80.4594 74.14 79.9367 74.14ZM79.8247 68.372C79.2647 68.372 78.798 68.526 78.4247 68.834C78.0514 69.142 77.8134 69.562 77.7107 70.094H81.7567C81.682 69.5527 81.4767 69.1327 81.1407 68.834C80.814 68.526 80.3754 68.372 79.8247 68.372ZM86.1845 74L83.5525 67.35H84.8685L86.5625 71.956L88.2425 67.35H88.9705L90.6505 71.956L92.3445 67.35H93.6605L91.0425 74H90.3005L88.6065 69.59L86.9125 74H86.1845ZM100.376 74V69.73L96.7782 64.284H98.3042L101.048 68.484L103.792 64.284H105.29L101.692 69.674V74H100.376ZM107.58 74.14C106.927 74.14 106.339 73.986 105.816 73.678C105.294 73.37 104.878 72.9547 104.57 72.432C104.262 71.9 104.108 71.3073 104.108 70.654C104.108 70.01 104.262 69.4313 104.57 68.918C104.878 68.3953 105.294 67.98 105.816 67.672C106.339 67.364 106.927 67.21 107.58 67.21C108.224 67.21 108.808 67.364 109.33 67.672C109.853 67.9707 110.268 68.3813 110.576 68.904C110.894 69.4267 111.052 70.01 111.052 70.654C111.052 71.3073 110.898 71.9 110.59 72.432C110.282 72.9547 109.862 73.37 109.33 73.678C108.808 73.986 108.224 74.14 107.58 74.14ZM107.58 72.922C108 72.922 108.374 72.824 108.7 72.628C109.027 72.432 109.284 72.166 109.47 71.83C109.657 71.4847 109.75 71.0927 109.75 70.654C109.75 70.2247 109.657 69.842 109.47 69.506C109.284 69.17 109.022 68.9087 108.686 68.722C108.36 68.526 107.991 68.428 107.58 68.428C107.16 68.428 106.787 68.526 106.46 68.722C106.134 68.9087 105.877 69.17 105.69 69.506C105.504 69.842 105.41 70.2247 105.41 70.654C105.41 71.0927 105.504 71.4847 105.69 71.83C105.877 72.1753 106.134 72.446 106.46 72.642C106.787 72.8287 107.16 72.922 107.58 72.922ZM112.472 74V67.35H113.732V68.134C113.928 67.8447 114.175 67.6207 114.474 67.462C114.782 67.294 115.137 67.21 115.538 67.21C116.201 67.21 116.756 67.462 117.204 67.966L116.378 68.82C116.098 68.54 115.748 68.4 115.328 68.4C114.861 68.4 114.479 68.5493 114.18 68.848C113.881 69.1467 113.732 69.5993 113.732 70.206V74H112.472ZM118.091 74V64.004H119.351V70.486L122.305 67.35H123.831L120.779 70.542L123.971 74H122.347L119.351 70.71V74H118.091ZM130.888 74.14C130.123 74.14 129.465 74 128.914 73.72C128.373 73.44 127.897 73.034 127.486 72.502L128.382 71.606C128.69 72.0353 129.045 72.362 129.446 72.586C129.848 72.8007 130.342 72.908 130.93 72.908C131.509 72.908 131.971 72.782 132.316 72.53C132.671 72.278 132.848 71.9327 132.848 71.494C132.848 71.13 132.764 70.836 132.596 70.612C132.428 70.388 132.2 70.206 131.91 70.066C131.63 69.9167 131.322 69.786 130.986 69.674C130.65 69.5527 130.314 69.4267 129.978 69.296C129.642 69.156 129.33 68.988 129.04 68.792C128.76 68.5867 128.536 68.3207 128.368 67.994C128.2 67.6673 128.116 67.2567 128.116 66.762C128.116 66.2207 128.247 65.754 128.508 65.362C128.779 64.97 129.143 64.6713 129.6 64.466C130.067 64.2513 130.59 64.144 131.168 64.144C131.803 64.144 132.368 64.27 132.862 64.522C133.366 64.7647 133.782 65.0867 134.108 65.488L133.212 66.384C132.923 66.048 132.61 65.796 132.274 65.628C131.948 65.46 131.57 65.376 131.14 65.376C130.618 65.376 130.202 65.4927 129.894 65.726C129.586 65.95 129.432 66.2673 129.432 66.678C129.432 67.0047 129.516 67.2707 129.684 67.476C129.862 67.6813 130.09 67.854 130.37 67.994C130.65 68.1247 130.958 68.2507 131.294 68.372C131.64 68.484 131.98 68.61 132.316 68.75C132.652 68.89 132.96 69.0673 133.24 69.282C133.52 69.4967 133.744 69.7767 133.912 70.122C134.09 70.458 134.178 70.8827 134.178 71.396C134.178 72.2547 133.88 72.9267 133.282 73.412C132.694 73.8973 131.896 74.14 130.888 74.14ZM136.75 74V68.498H135.112V67.35H136.75V64.564H138.01V67.35H139.648V68.498H138.01V74H136.75ZM140.882 74V67.35H142.142V68.134C142.338 67.8447 142.585 67.6207 142.884 67.462C143.192 67.294 143.547 67.21 143.948 67.21C144.611 67.21 145.166 67.462 145.614 67.966L144.788 68.82C144.508 68.54 144.158 68.4 143.738 68.4C143.271 68.4 142.889 68.5493 142.59 68.848C142.291 69.1467 142.142 69.5993 142.142 70.206V74H140.882ZM149.362 74.14C148.69 74.14 148.088 73.9907 147.556 73.692C147.034 73.384 146.618 72.9687 146.31 72.446C146.002 71.9233 145.848 71.3307 145.848 70.668C145.848 70.0147 145.998 69.4267 146.296 68.904C146.604 68.3813 147.015 67.9707 147.528 67.672C148.051 67.364 148.634 67.21 149.278 67.21C149.885 67.21 150.422 67.35 150.888 67.63C151.364 67.91 151.738 68.2973 152.008 68.792C152.279 69.2867 152.414 69.8467 152.414 70.472C152.414 70.6493 152.391 70.8733 152.344 71.144H147.136C147.239 71.704 147.486 72.1473 147.878 72.474C148.27 72.7913 148.765 72.95 149.362 72.95C149.736 72.95 150.076 72.8847 150.384 72.754C150.702 72.6233 150.972 72.4273 151.196 72.166L152.008 72.992C151.682 73.3653 151.29 73.65 150.832 73.846C150.375 74.042 149.885 74.14 149.362 74.14ZM149.25 68.372C148.69 68.372 148.224 68.526 147.85 68.834C147.477 69.142 147.239 69.562 147.136 70.094H151.182C151.108 69.5527 150.902 69.1327 150.566 68.834C150.24 68.526 149.801 68.372 149.25 68.372ZM156.616 74.14C156.01 74.14 155.459 73.9907 154.964 73.692C154.47 73.384 154.078 72.9687 153.788 72.446C153.508 71.9233 153.368 71.3353 153.368 70.682C153.368 70.038 153.508 69.4547 153.788 68.932C154.078 68.4 154.465 67.98 154.95 67.672C155.445 67.364 156 67.21 156.616 67.21C157.083 67.21 157.508 67.3033 157.89 67.49C158.273 67.6767 158.586 67.9333 158.828 68.26V67.35H160.088V74H158.828V73.104C158.595 73.4213 158.287 73.6733 157.904 73.86C157.522 74.0467 157.092 74.14 156.616 74.14ZM156.826 72.95C157.452 72.95 157.956 72.74 158.338 72.32C158.721 71.9 158.912 71.354 158.912 70.682C158.912 70.0007 158.716 69.45 158.324 69.03C157.942 68.61 157.438 68.4 156.812 68.4C156.392 68.4 156.019 68.498 155.692 68.694C155.375 68.89 155.123 69.1607 154.936 69.506C154.759 69.842 154.67 70.2293 154.67 70.668C154.67 71.116 154.759 71.5127 154.936 71.858C155.123 72.194 155.38 72.46 155.706 72.656C156.033 72.852 156.406 72.95 156.826 72.95ZM161.937 74V67.35H163.197V68.134C163.421 67.8447 163.705 67.6207 164.051 67.462C164.405 67.294 164.788 67.21 165.199 67.21C165.675 67.21 166.104 67.3173 166.487 67.532C166.869 67.7373 167.168 68.0267 167.383 68.4C167.616 68.0267 167.929 67.7373 168.321 67.532C168.713 67.3173 169.151 67.21 169.637 67.21C170.103 67.21 170.528 67.3127 170.911 67.518C171.303 67.7233 171.611 68.0173 171.835 68.4C172.068 68.7733 172.185 69.2167 172.185 69.73V74H170.925V69.982C170.925 69.4873 170.771 69.1 170.463 68.82C170.164 68.5307 169.786 68.386 169.329 68.386C168.909 68.386 168.545 68.5027 168.237 68.736C167.938 68.9693 167.761 69.296 167.705 69.716V74H166.445V69.982C166.445 69.4873 166.291 69.1 165.983 68.82C165.684 68.5307 165.306 68.386 164.849 68.386C164.391 68.386 164.004 68.5307 163.687 68.82C163.369 69.1 163.211 69.4827 163.211 69.968H163.197V74H161.937ZM174.557 66.02C174.324 66.02 174.133 65.9453 173.983 65.796C173.834 65.6373 173.759 65.4413 173.759 65.208C173.759 64.984 173.834 64.7973 173.983 64.648C174.133 64.4893 174.324 64.41 174.557 64.41C174.781 64.41 174.968 64.4893 175.117 64.648C175.276 64.7973 175.355 64.984 175.355 65.208C175.355 65.4413 175.276 65.6373 175.117 65.796C174.968 65.9453 174.781 66.02 174.557 66.02ZM173.927 74V67.35H175.187V74H173.927ZM177.044 74V67.35H178.304V68.218C178.538 67.9007 178.836 67.6533 179.2 67.476C179.564 67.2987 179.966 67.21 180.404 67.21C180.918 67.21 181.366 67.336 181.748 67.588C182.14 67.84 182.448 68.1713 182.672 68.582C182.896 68.9833 183.008 69.4127 183.008 69.87V74H181.748V70.122C181.748 69.618 181.59 69.2027 181.272 68.876C180.955 68.5493 180.544 68.386 180.04 68.386C179.536 68.386 179.121 68.5493 178.794 68.876C178.468 69.2027 178.304 69.618 178.304 70.122V74H177.044ZM187.472 73.888C186.865 73.888 186.319 73.7433 185.834 73.454C185.358 73.1647 184.98 72.768 184.7 72.264C184.42 71.7507 184.28 71.1767 184.28 70.542C184.28 69.9073 184.42 69.3427 184.7 68.848C184.98 68.344 185.358 67.9473 185.834 67.658C186.319 67.3593 186.861 67.21 187.458 67.21C187.943 67.21 188.377 67.3033 188.76 67.49C189.152 67.6673 189.469 67.9193 189.712 68.246V67.35H190.972V73.734C190.972 74.3687 190.823 74.924 190.524 75.4C190.235 75.8853 189.824 76.2587 189.292 76.52C188.769 76.7907 188.163 76.926 187.472 76.926C186.791 76.926 186.184 76.8 185.652 76.548C185.129 76.296 184.709 75.9413 184.392 75.484L185.204 74.658C185.465 75.0033 185.783 75.2647 186.156 75.442C186.539 75.6287 186.987 75.722 187.5 75.722C188.181 75.722 188.718 75.5447 189.11 75.19C189.511 74.8353 189.712 74.35 189.712 73.734V72.852C189.469 73.1787 189.157 73.4353 188.774 73.622C188.391 73.7993 187.957 73.888 187.472 73.888ZM187.724 72.698C188.34 72.698 188.835 72.502 189.208 72.11C189.591 71.718 189.782 71.2 189.782 70.556C189.782 69.912 189.591 69.394 189.208 69.002C188.835 68.6007 188.335 68.4 187.71 68.4C187.085 68.4 186.571 68.6007 186.17 69.002C185.778 69.4033 185.582 69.9167 185.582 70.542C185.582 71.186 185.778 71.7087 186.17 72.11C186.571 72.502 187.089 72.698 187.724 72.698Z" fill="#292930"/>
<path d="M273.5 67C273.5 67.8284 272.828 68.5 272 68.5C271.172 68.5 270.5 67.8284 270.5 67L273.5 67ZM270.5 65C270.5 64.1716 271.172 63.5 272 63.5C272.828 63.5 273.5 64.1716 273.5 65L270.5 65ZM270.5 67L270.5 65L273.5 65L273.5 67L270.5 67Z" fill="#2CC57B"/>
<path d="M280.5 67C280.5 67.8284 279.828 68.5 279 68.5C278.172 68.5 277.5 67.8284 277.5 67L280.5 67ZM277.5 60C277.5 59.1716 278.172 58.5 279 58.5C279.828 58.5 280.5 59.1716 280.5 60L277.5 60ZM277.5 67L277.5 60L280.5 60L280.5 67L277.5 67Z" fill="#2CC57B"/>
<path d="M287.5 67C287.5 67.8284 286.828 68.5 286 68.5C285.172 68.5 284.5 67.8284 284.5 67L287.5 67ZM284.5 55C284.5 54.1716 285.172 53.5 286 53.5C286.828 53.5 287.5 54.1716 287.5 55L284.5 55ZM284.5 67L284.5 55L287.5 55L287.5 67L284.5 67Z" fill="#2CC57B"/>
<path opacity="0.4" d="M302.367 64C302.477 63.51 302.277 62.81 301.927 62.46L299.497 60.03C298.737 59.27 298.437 58.46 298.657 57.76C298.887 57.06 299.597 56.58 300.657 56.4L303.777 55.88C304.227 55.8 304.777 55.4 304.987 54.99L306.707 51.54C307.207 50.55 307.887 50 308.627 50C309.367 50 310.047 50.55 310.547 51.54L312.267 54.99C312.397 55.25 312.667 55.5 312.957 55.67L302.187 66.44C302.047 66.58 301.807 66.45 301.847 66.25L302.367 64Z" fill="#FFB545"/>
<path d="M315.327 62.46C314.967 62.82 314.767 63.51 314.887 64L315.577 67.01C315.867 68.26 315.687 69.2 315.067 69.65C314.817 69.83 314.517 69.92 314.167 69.92C313.657 69.92 313.057 69.73 312.397 69.34L309.467 67.6C309.007 67.33 308.247 67.33 307.787 67.6L304.857 69.34C303.747 69.99 302.797 70.1 302.187 69.65C301.957 69.48 301.787 69.25 301.677 68.95L313.837 56.79C314.297 56.33 314.947 56.12 315.577 56.23L316.587 56.4C317.647 56.58 318.357 57.06 318.587 57.76C318.807 58.46 318.507 59.27 317.747 60.03L315.327 62.46Z" fill="#FFB545"/>
<g clip-path="url(#clip0_919_9972)">
<path d="M319.333 23.2413C318.443 22.3514 317 22.3514 316.11 23.2413L310.773 28.5787C309.881 19.4977 303.155 11.6557 293.759 9.78682C286.843 8.4113 279.711 10.5471 274.68 15.5004C273.783 16.3834 273.772 17.8261 274.655 18.7228C275.538 19.6195 276.981 19.6307 277.877 18.7477C281.831 14.8546 287.436 13.1759 292.87 14.2565C300.293 15.7331 305.595 21.9548 306.248 29.1401L300.349 23.2408C299.459 22.3511 298.016 22.3509 297.126 23.241C296.237 24.1308 296.237 25.5735 297.126 26.4634L306.618 35.9553C307.063 36.4002 307.646 36.6226 308.229 36.6226C308.812 36.6226 309.396 36.4002 309.841 35.9553L319.332 26.4638C320.223 25.574 320.223 24.1311 319.333 23.2413Z" fill="#EBC553"/>
</g>
<defs>
<clipPath id="clip0_919_9972">
<rect width="46" height="46" fill="white" transform="translate(274)"/>
</clipPath>
</defs>
</svg>
