<svg width="24" height="24" viewBox="0 0 24 24" fill="none" xmlns="http://www.w3.org/2000/svg">
<path opacity="0.4" d="M20.62 8.7C19.58 4.07 15.54 2 12 2C12 2 12 2 11.99 2C8.45999 2 4.42999 4.07 3.37999 8.69C2.19999 13.85 5.35999 18.22 8.21999 20.98C9.27999 22 10.64 22.51 12 22.51C13.36 22.51 14.72 22 15.77 20.98C18.63 18.22 21.79 13.86 20.62 8.7Z" fill="#EBC553"/>
<path d="M10.7499 13.7499C10.5599 13.7499 10.3699 13.6799 10.2199 13.5299L8.71994 12.0299C8.42994 11.7399 8.42994 11.2599 8.71994 10.9699C9.00994 10.6799 9.48994 10.6799 9.77994 10.9699L10.7499 11.9399L14.2199 8.46994C14.5099 8.17994 14.9899 8.17994 15.2799 8.46994C15.5699 8.75994 15.5699 9.23994 15.2799 9.52994L11.2799 13.5299C11.1299 13.6799 10.9399 13.7499 10.7499 13.7499Z" fill="#EBC553"/>
</svg>
