<svg width="39" height="28" viewBox="0 0 39 28" fill="none" xmlns="http://www.w3.org/2000/svg">
<path d="M-6.10352e-05 16.4717C0.28038 16.1789 0.536076 15.9026 0.80002 15.6345C1.54236 14.8716 2.28883 14.1168 3.02705 13.3498C4.06083 12.2775 5.09049 11.2011 6.11603 10.1206C6.23975 9.99271 6.30986 9.97621 6.43771 10.1123C6.7264 10.4175 7.03571 10.7021 7.32852 10.999C9.05241 12.76 10.7928 14.5045 12.4837 16.2944C12.9786 16.8181 13.1972 17.5151 13.0157 18.2657C12.8136 19.0864 11.9599 19.5153 11.131 19.2184C10.7144 19.0658 10.3804 18.8019 10.0999 18.4596C9.13077 17.2801 8.15747 16.1047 7.1883 14.9293C6.97385 14.6695 6.75527 14.4097 6.52019 14.1292C5.74898 14.8633 4.98189 15.5892 4.19418 16.3356C6.40059 18.3853 8.59876 20.4226 10.8093 22.4765C12.8425 20.402 14.8674 18.34 16.9006 16.2655C16.5872 15.9562 16.2903 15.651 15.9892 15.3541C13.6659 13.0391 11.3413 10.7268 9.01529 8.41729C8.94106 8.33893 8.84208 8.28531 8.76372 8.21108C8.18222 7.64607 7.86054 6.98209 8.04612 6.15314C8.22346 5.35306 8.89982 5.03137 9.61329 5.15097C10.1536 5.23758 10.5536 5.54277 10.9206 5.95106C11.4362 6.52843 12.0053 7.06045 12.5538 7.61308C14.6983 9.76588 16.8429 11.9187 18.9833 14.0715C19.0369 14.1251 19.0782 14.1869 19.1359 14.2612C19.206 14.1952 19.2555 14.1581 19.2968 14.1168C21.0536 12.3146 22.8146 10.5206 24.5674 8.71835C25.5448 7.71619 26.4892 6.68103 27.4955 5.70773C28.308 4.92002 29.7762 5.0355 30.2917 6.12839C30.5804 6.74289 30.3783 7.57184 29.8339 8.09148C26.9841 10.7887 24.1426 13.4941 21.297 16.1954C21.2887 16.2037 21.2846 16.2201 21.264 16.2531C23.4704 18.3441 25.6809 20.4391 27.9038 22.5424C29.9453 20.5711 31.9702 18.6163 34.0117 16.6408C33.3765 15.8242 32.7456 15.0159 32.1022 14.1828C31.9331 14.3684 31.7805 14.5416 31.6279 14.7148C30.4814 16.0126 29.3349 17.3103 28.1884 18.608C27.8296 19.0163 27.3966 19.2968 26.8522 19.3462C25.9036 19.437 25.1819 18.5957 25.3304 17.5976C25.4293 16.9377 25.7593 16.4181 26.2583 15.9727C26.8769 15.4201 27.4584 14.8262 28.0564 14.2447C28.807 13.5106 29.5617 12.7765 30.3082 12.0383C30.9048 11.4499 31.4959 10.8588 32.0816 10.2649C32.2053 10.1412 32.2919 10.1329 32.4156 10.2649C32.8569 10.7186 33.3023 11.1681 33.7518 11.6094C34.3663 12.2074 34.9932 12.7889 35.6036 13.3869C36.2139 13.9849 36.8119 14.5911 37.4182 15.1932C37.6615 15.4324 37.9131 15.6675 38.1605 15.9026C38.4946 16.2201 38.5152 16.546 38.2059 16.8759C38.0574 17.0326 37.8883 17.1605 37.7316 17.3089C37.6079 17.4285 37.4842 17.5522 37.3605 17.676C36.7666 18.2698 36.1768 18.8678 35.5788 19.4617C35.2943 19.7422 34.9932 20.0061 34.7086 20.2907C34.1313 20.8639 33.558 21.4454 32.9806 22.0228C32.6878 22.3074 32.3826 22.5796 32.0939 22.8641C31.8094 23.1487 31.5454 23.4498 31.2609 23.7302C30.9969 23.9983 30.7165 24.2457 30.4525 24.5055C30.2669 24.6911 30.102 24.8932 29.9164 25.0788C29.6236 25.3757 29.3184 25.6685 29.0215 25.9614C28.5967 26.3738 28.176 26.7862 27.7595 27.1986C27.5203 26.9676 27.2646 26.7326 27.0213 26.4851C26.3408 25.7964 25.6685 25.1035 24.9922 24.4066C24.1137 23.5075 23.2394 22.6043 22.3651 21.7052C21.7355 21.0619 21.1059 20.4185 20.4763 19.7752C20.1133 19.404 19.7422 19.0369 19.3792 18.6658C19.2555 18.5379 19.1648 18.5338 19.0411 18.6658C18.6823 19.0534 18.3193 19.4328 17.9482 19.8081C17.0697 20.6866 16.1872 21.5609 15.3087 22.4393C14.6159 23.1322 13.923 23.8278 13.2302 24.5262C12.3765 25.3881 11.5269 26.25 10.6732 27.112C10.6443 27.1409 10.6113 27.1697 10.5618 27.2151C7.04396 23.6395 3.5302 20.0638 -6.10352e-05 16.4717Z" fill="white"/>
<path fill-rule="evenodd" clip-rule="evenodd" d="M22.0721 0.441206C21.1689 0.144268 20.2286 0.0287926 19.2718 -7.62939e-05C19.0991 0.016678 18.9264 0.0314186 18.7537 0.0461592C18.3738 0.0785884 17.9938 0.111018 17.6139 0.164889C16.8138 0.272117 16.0344 0.486572 15.3003 0.837123C14.9267 1.01834 14.5632 1.22277 14.2006 1.42663L14.0754 1.49698C13.4527 1.85166 12.9083 2.30944 12.4051 2.81671C12.0133 3.2085 12.1824 3.94672 12.7763 4.0622C13.0856 4.11993 13.2712 3.96322 13.4568 3.78588C14.1125 3.15489 14.8301 2.61462 15.6508 2.21871C16.7355 1.69082 17.882 1.42687 19.0862 1.40625C20.1832 1.38976 21.239 1.58359 22.2577 1.996C22.9547 2.27645 23.6104 2.63937 24.1919 3.11364C24.3786 3.26502 24.556 3.42412 24.7337 3.58338L24.7337 3.58339L24.7337 3.5834C24.8464 3.68446 24.9592 3.78559 25.0745 3.88486C25.3302 4.09931 25.8044 4.09519 26.0065 3.87661C26.2622 3.59204 26.3117 3.14664 26.0725 2.91156C26.0142 2.85476 25.9562 2.79744 25.8982 2.74006L25.8981 2.74001L25.8981 2.74001C25.6274 2.47247 25.3553 2.20362 25.0497 1.97951C24.6167 1.65783 24.1507 1.37326 23.6681 1.12581C23.1567 0.861868 22.6206 0.622668 22.0721 0.441206ZM23.275 5.84125C23.4363 5.98058 23.5908 6.11398 23.7838 6.09941C24.1137 6.09116 24.3447 5.97981 24.4725 5.72824C24.6045 5.47254 24.5055 5.05188 24.3035 4.85392L24.1932 4.75086C24.0483 4.61521 23.903 4.47906 23.7549 4.35078C22.2043 3.02693 20.4103 2.46605 18.3894 2.70113C16.6903 2.89496 15.2675 3.6538 14.1086 4.90341C13.8034 5.22922 13.857 5.71999 14.2117 5.96744C14.5334 6.19427 14.9004 6.13653 15.2221 5.7901C15.7789 5.1921 16.4346 4.73845 17.1934 4.44563C18.872 3.79815 20.501 3.93837 22.0476 4.8498C22.3621 5.03609 22.6405 5.28345 22.9178 5.5299L22.9179 5.52992L22.9179 5.52995C23.0151 5.61629 23.1121 5.70252 23.2106 5.78598C23.2322 5.80428 23.2537 5.8228 23.275 5.84123L23.275 5.84125ZM19.2227 5.29113C20.1671 5.287 21.0002 5.61281 21.7467 6.16132C22.0684 6.3964 22.3529 6.68921 22.6127 6.99439C22.9221 7.34907 22.8602 7.79035 22.5179 8.04605C22.2045 8.28112 21.7797 8.19864 21.5033 7.84809C20.6909 6.80469 19.4207 6.45001 18.1875 6.89542C17.6638 7.08513 17.2844 7.43155 16.9503 7.84809C16.7523 8.09554 16.5173 8.22751 16.1997 8.16153C15.8698 8.09142 15.6966 7.86046 15.6471 7.54703C15.6017 7.26659 15.7626 7.04801 15.9275 6.85417C16.7936 5.84789 17.8865 5.30762 19.2227 5.29113ZM19.2184 11.1102C20.0927 11.1309 20.8103 10.4091 20.8185 9.53895C20.8226 8.66051 20.1257 7.94291 19.2431 7.94291C18.3358 7.94291 17.6512 8.60689 17.6471 9.51008C17.6429 10.4256 18.3234 11.0855 19.2184 11.1102Z" fill="url(#paint0_linear_16556_6607)"/>
<defs>
<linearGradient id="paint0_linear_16556_6607" x1="19.2106" y1="-7.62939e-05" x2="19.2106" y2="11.1107" gradientUnits="userSpaceOnUse">
<stop stop-color="#C69320"/>
<stop offset="0.609375" stop-color="#EEB609"/>
<stop offset="1" stop-color="#FCC201"/>
</linearGradient>
</defs>
</svg>
