<svg width="24" height="24" viewBox="0 0 24 24" fill="none" xmlns="http://www.w3.org/2000/svg">
<path opacity="0.4" d="M16.19 2H7.82002C4.18002 2 2.01001 4.17 2.01001 7.81V16.18C2.01001 19.82 4.18002 21.99 7.82002 21.99H16.19C19.83 21.99 22 19.82 22 16.18V7.81C22 4.17 19.83 2 16.19 2Z" fill="#F86764"/>
<path d="M13.02 12.5901H10.59C10.18 12.5901 9.84 12.9301 9.84 13.3401C9.84 13.7501 10.18 14.0901 10.59 14.0901H14.83C14.93 14.0901 15.02 14.0701 15.12 14.0301C15.3 13.9501 15.45 13.8101 15.53 13.6201C15.57 13.5301 15.59 13.4301 15.59 13.3301V9.10011C15.59 8.69011 15.25 8.35011 14.84 8.35011C14.43 8.35011 14.09 8.69011 14.09 9.10011V11.5301L9.71001 7.15012C9.42001 6.86012 8.94 6.86012 8.65 7.15012C8.36 7.44012 8.36 7.92011 8.65 8.21011L13.02 12.5901Z" fill="#F86764"/>
<path d="M18.71 16.2802C18.58 15.8902 18.16 15.6802 17.76 15.8102C14.04 17.0502 9.94999 17.0502 6.22999 15.8102C5.83999 15.6802 5.41 15.8902 5.28 16.2802C5.15 16.6702 5.36 17.1002 5.75 17.2302C7.76 17.9002 9.87 18.2402 11.99 18.2402C14.11 18.2402 16.22 17.9002 18.23 17.2302C18.63 17.0902 18.84 16.6702 18.71 16.2802Z" fill="#F86764"/>
</svg>
