<svg width="24" height="24" viewBox="0 0 24 24" fill="none" xmlns="http://www.w3.org/2000/svg">
<path opacity="0.4" d="M16.19 2H7.82002C4.18002 2 2.01001 4.17 2.01001 7.81V16.18C2.01001 19.82 4.18002 21.99 7.82002 21.99H16.19C19.83 21.99 22 19.82 22 16.18V7.81C22 4.17 19.83 2 16.19 2Z" fill="#2CC57B"/>
<path d="M9.17 14.0899C9.36 14.0899 9.55 14.0199 9.7 13.8699L14.08 9.48992V11.9199C14.08 12.3299 14.42 12.6699 14.83 12.6699C15.24 12.6699 15.58 12.3299 15.58 11.9199V7.67992C15.58 7.57992 15.56 7.48992 15.52 7.38992C15.44 7.20992 15.3 7.05993 15.11 6.97993C15.02 6.93993 14.92 6.91992 14.82 6.91992H10.58C10.17 6.91992 9.83 7.25992 9.83 7.66992C9.83 8.07992 10.17 8.41992 10.58 8.41992H13.01L8.63001 12.7999C8.34001 13.0899 8.34001 13.5699 8.63001 13.8599C8.79001 14.0199 8.98 14.0899 9.17 14.0899Z" fill="#2CC57B"/>
<path d="M18.71 16.28C18.58 15.89 18.16 15.68 17.76 15.81C14.04 17.05 9.94999 17.05 6.22999 15.81C5.83999 15.68 5.41 15.89 5.28 16.28C5.15 16.67 5.36 17.1 5.75 17.23C7.76 17.9 9.87 18.24 11.99 18.24C14.11 18.24 16.22 17.9 18.23 17.23C18.63 17.09 18.84 16.67 18.71 16.28Z" fill="#2CC57B"/>
</svg>
