<svg width="125" height="125" viewBox="0 0 125 125" fill="none" xmlns="http://www.w3.org/2000/svg">
<path d="M62.3038 100.861C63.01 100.861 64.0302 100.586 65.0504 100.076C87.5331 88.501 94.9881 82.4193 94.9881 68.3332V39.1802C94.9881 34.5503 93.1832 32.8631 89.2988 31.2544C84.9827 29.4495 70.622 24.3879 66.4237 22.9754C65.1288 22.583 63.6771 22.3083 62.3038 22.3083C60.9697 22.3083 59.518 22.583 58.2231 22.9754C53.9856 24.3094 39.6249 29.4887 35.348 31.2544C31.4636 32.8238 29.6587 34.5503 29.6587 39.1802V68.3332C29.6587 82.4193 37.4276 87.9517 59.5964 100.076C60.6166 100.625 61.6368 100.861 62.3038 100.861ZM47.7077 75.1997V59.348C47.7077 56.5622 48.8455 55.1104 51.1213 54.875V50.3235C51.1213 42.8292 55.6727 37.7677 62.3038 37.7677C68.9741 37.7677 73.5255 42.8292 73.5255 50.3235V54.875C75.8013 55.1104 76.9391 56.5622 76.9391 59.348V75.1997C76.9391 78.3386 75.5266 79.7512 72.6623 79.7512H51.9845C49.1202 79.7512 47.7077 78.3386 47.7077 75.1997ZM55.9866 54.7965H68.6602V49.8919C68.6602 45.4189 66.1098 42.4761 62.3038 42.4761C58.4978 42.4761 55.9866 45.4581 55.9866 49.8919V54.7965Z" fill="#23C16B"/>
</svg>
