<svg width="125" height="125" viewBox="0 0 125 125" fill="none" xmlns="http://www.w3.org/2000/svg">
<path d="M94.9883 99.8012C96.2046 101.018 98.2057 101.018 99.3828 99.8012C100.599 98.5849 100.599 96.5838 99.3828 95.3675L26.2452 22.2691C25.0289 21.0528 23.0278 21.0528 21.7722 22.2691C20.5951 23.4462 20.5951 25.4866 21.7722 26.6637L94.9883 99.8012ZM91.8886 80.9675C94.2035 77.3577 95.1452 73.3556 95.1452 68.3332V39.1802C95.1452 34.5503 93.3796 32.8631 89.4951 31.2544C85.179 29.4495 70.8183 24.3879 66.62 22.9754C65.3252 22.583 63.8342 22.3084 62.5001 22.3084C61.1661 22.3084 59.6751 22.583 58.3803 22.9754C55.1236 24.0348 46.6092 27.056 40.3705 29.4102L91.8886 80.9675ZM29.855 41.6914V68.3332C29.855 82.4193 37.6239 87.9517 59.7928 100.076C60.8129 100.625 61.7939 100.861 62.5001 100.861C63.2064 100.861 64.2265 100.586 65.2467 100.076C71.1322 97.0154 75.9976 94.3473 79.9213 91.8361L29.855 41.6914Z" fill="#FF5247"/>
</svg>
