<svg width="125" height="125" viewBox="0 0 125 125" fill="none" xmlns="http://www.w3.org/2000/svg">
<path d="M62.4608 100.821C63.167 100.821 64.1872 100.547 65.2074 100.037C87.6509 88.4617 95.0666 82.38 95.0666 68.3332V39.1017C95.0666 34.5503 93.301 32.9023 89.4558 31.2936C85.1789 29.5279 70.7005 24.3879 66.5022 22.9754C65.2466 22.583 63.7948 22.3083 62.4608 22.3083C61.166 22.3083 59.7142 22.6222 58.4586 22.9754C54.221 24.3094 39.7819 29.5279 35.505 31.2936C31.6598 32.8631 29.8942 34.5503 29.8942 39.1017V68.3332C29.8942 82.38 37.6238 87.9124 59.7534 100.037C60.7736 100.586 61.7938 100.821 62.4608 100.821ZM44.8434 62.5654C44.8434 62.0553 45.1181 61.4275 45.5497 60.9174L67.5223 33.5693C69.3272 31.3721 72.3092 32.9023 71.2498 35.6097L64.1087 54.6788H77.5277C78.6264 54.6788 79.4896 55.5028 79.4896 56.6014C79.4896 57.1507 79.2542 57.7785 78.8226 58.2886L56.8499 85.5974C55.0058 87.834 52.063 86.3037 53.1224 83.5571L60.2635 64.488H46.8445C45.7459 64.488 44.8434 63.7033 44.8434 62.5654Z" fill="#EBC553"/>
</svg>
