<svg width="41" height="41" viewBox="0 0 41 41" fill="none" xmlns="http://www.w3.org/2000/svg">
<rect x="0.8" y="0.8" width="39.4" height="39.4" rx="11.2" stroke="#999FAE" stroke-width="1.6"/>
<path opacity="0.4" d="M21 11C18.38 11 16.25 13.13 16.25 15.75C16.25 18.32 18.26 20.4 20.88 20.49C20.96 20.48 21.04 20.48 21.1 20.49C21.12 20.49 21.13 20.49 21.15 20.49C21.16 20.49 21.16 20.49 21.17 20.49C23.73 20.4 25.74 18.32 25.75 15.75C25.75 13.13 23.62 11 21 11Z" fill="#9490B0"/>
<path d="M26.08 23.1499C23.29 21.2899 18.74 21.2899 15.93 23.1499C14.66 23.9999 13.96 25.1499 13.96 26.3799C13.96 27.6099 14.66 28.7499 15.92 29.5899C17.32 30.5299 19.16 30.9999 21 30.9999C22.84 30.9999 24.68 30.5299 26.08 29.5899C27.34 28.7399 28.04 27.5999 28.04 26.3599C28.03 25.1299 27.34 23.9899 26.08 23.1499Z" fill="#9490B0"/>
</svg>
