<svg width="37" height="37" viewBox="0 0 37 37" fill="none" xmlns="http://www.w3.org/2000/svg">
<path d="M6.59918 16.229C6.83775 16.4903 7.21264 16.4789 7.46257 16.2063C10.2686 13.2412 13.9607 11.6735 18.0846 11.6735C22.2425 11.6735 25.946 13.2412 28.7407 16.229C28.9793 16.4676 29.3428 16.4562 29.5814 16.2063L31.1718 14.6045C31.399 14.3773 31.399 14.0819 31.2173 13.866C28.4794 10.492 23.3786 8.0722 18.0846 8.0722C12.802 8.0722 7.68978 10.4806 4.96327 13.866C4.7815 14.0819 4.7815 14.3773 4.99735 14.6045L6.59918 16.229ZM11.3478 20.955C11.6205 21.2162 11.984 21.1935 12.2453 20.9095C13.6313 19.3986 15.8466 18.3307 18.0959 18.342C20.3567 18.3307 22.572 19.4213 23.992 20.9436C24.2306 21.2162 24.5714 21.2049 24.8327 20.9436L26.6163 19.1941C26.8321 18.9896 26.8549 18.7056 26.6617 18.4784C24.8895 16.3312 21.6518 14.7862 18.0959 14.7862C14.5288 14.7862 11.291 16.3312 9.51881 18.4784C9.32568 18.7056 9.3484 18.9782 9.56425 19.1941L11.3478 20.955ZM18.0959 27.2486C18.3686 27.2486 18.6072 27.1237 19.0729 26.6806L21.8563 23.9996C22.0607 23.8064 22.1062 23.4883 21.9244 23.2611C21.1292 22.25 19.6864 21.4321 18.0959 21.4321C16.46 21.4321 14.9945 22.2841 14.2107 23.352C14.0744 23.5565 14.1425 23.8064 14.3356 23.9996L17.1189 26.6806C17.5734 27.1123 17.8233 27.2486 18.0959 27.2486Z" fill="white"/>
</svg>
