<svg width="25" height="29" viewBox="0 0 25 29" fill="none" xmlns="http://www.w3.org/2000/svg">
<path d="M20.5794 8.10744H5.07809V8.09796C5.16589 6.93837 5.51841 5.81434 6.10849 4.81223C6.83052 3.7205 7.82961 2.84003 9.00355 2.26105C10.1775 1.68207 11.4841 1.42528 12.7899 1.51691H12.8295C14.1367 1.43277 15.4429 1.69377 16.6173 2.27382C17.7917 2.85387 18.793 3.7326 19.5205 4.82171C20.1212 5.82122 20.484 6.94541 20.581 8.10744H20.5794ZM16.2313 3.79779C16.1087 3.79779 15.9873 3.82198 15.874 3.8689C15.7607 3.91582 15.6578 3.9845 15.5711 4.07119C15.4844 4.15788 15.4156 4.26082 15.3687 4.37408C15.3217 4.48735 15.2977 4.60875 15.2977 4.73135C15.2977 4.97895 15.396 5.21644 15.5711 5.39152C15.7462 5.5666 15.9837 5.66491 16.2313 5.66491C16.3539 5.66491 16.4753 5.64082 16.5886 5.5939C16.7019 5.54698 16.8048 5.47821 16.8915 5.39152C16.9782 5.30483 17.0469 5.20189 17.0938 5.08862C17.1407 4.97535 17.1649 4.85395 17.1649 4.73135C17.1649 4.60875 17.1407 4.48735 17.0938 4.37408C17.0469 4.26082 16.9782 4.15788 16.8915 4.07119C16.8048 3.9845 16.7019 3.91582 16.5886 3.8689C16.4753 3.82198 16.3539 3.79779 16.2313 3.79779V3.79779ZM9.4278 3.79779C9.30519 3.79779 9.18378 3.82198 9.0705 3.8689C8.95722 3.91582 8.85427 3.9845 8.76758 4.07119C8.68088 4.15788 8.61209 4.26082 8.56517 4.37408C8.51825 4.48735 8.49416 4.60875 8.49416 4.73135C8.49416 4.97895 8.59248 5.21644 8.76758 5.39152C8.94267 5.5666 9.18018 5.66491 9.4278 5.66491C9.67542 5.66491 9.91283 5.5666 10.0879 5.39152C10.263 5.21644 10.3614 4.97895 10.3614 4.73135C10.3614 4.60862 10.3373 4.48707 10.2902 4.3737C10.2432 4.26033 10.1743 4.15741 10.0874 4.0707C10.0006 3.98399 9.8974 3.91524 9.78394 3.86842C9.67048 3.82159 9.5489 3.79759 9.42616 3.79779H9.4278Z" fill="#EBC553"/>
<path d="M9.17271 2.40453C9.19966 2.44257 9.28351 2.43148 9.36118 2.376C9.43886 2.32053 9.47714 2.24603 9.45019 2.20799L8.00281 0.164906C7.97586 0.12528 7.89043 0.13796 7.81434 0.193436C7.73825 0.248912 7.69679 0.323407 7.72533 0.363033L9.17271 2.40453Z" fill="#EBC553"/>
<path d="M16.4943 2.40453C16.4658 2.44257 16.3819 2.43148 16.3043 2.376C16.2266 2.32053 16.1883 2.24603 16.2153 2.20799L17.6626 0.164906C17.6912 0.12528 17.775 0.13796 17.8511 0.193436C17.9272 0.248912 17.9687 0.323407 17.9401 0.363033L16.4943 2.40453Z" fill="#EBC553"/>
<path d="M20.6459 9.02686H5.01447V15.4604H5.02878V22.2142C5.0292 22.462 5.12782 22.6994 5.30317 22.8744C5.47852 23.0495 5.7164 23.1478 5.96417 23.1478H19.6962C19.9438 23.1478 20.1813 23.0494 20.3564 22.8743C20.5315 22.6993 20.63 22.4618 20.63 22.2142V15.4668H20.6459V9.02686Z" fill="#EBC553"/>
<path d="M24.8021 17.6271C24.8021 18.0685 24.6267 18.4918 24.3145 18.8039C24.0024 19.1161 23.5791 19.2914 23.1376 19.2914C22.6962 19.2914 22.2729 19.1161 21.9608 18.8039C21.6486 18.4918 21.4731 18.0685 21.4731 17.6271V10.1569C21.4731 9.71556 21.6486 9.29224 21.9608 8.98013C22.2729 8.66802 22.6962 8.49268 23.1376 8.49268C23.5791 8.49268 24.0024 8.66802 24.3145 8.98013C24.6267 9.29224 24.8021 9.71556 24.8021 10.1569V17.6271Z" fill="#EBC553"/>
<path d="M4.18077 17.6271C4.18077 18.0685 4.00528 18.4918 3.69314 18.8039C3.381 19.1161 2.9577 19.2914 2.51627 19.2914C2.07484 19.2914 1.65154 19.1161 1.3394 18.8039C1.02726 18.4918 0.851776 18.0685 0.851776 17.6271V10.1569C0.851776 9.71556 1.02726 9.29224 1.3394 8.98013C1.65154 8.66802 2.07484 8.49268 2.51627 8.49268C2.9577 8.49268 3.381 8.66802 3.69314 8.98013C4.00528 9.29224 4.18077 9.71556 4.18077 10.1569V17.6271Z" fill="#EBC553"/>
<path d="M17.6991 27.294C17.6991 27.7354 17.5236 28.1587 17.2115 28.4708C16.8993 28.7829 16.476 28.9582 16.0346 28.9582C15.5932 28.9582 15.1698 28.7829 14.8577 28.4708C14.5456 28.1587 14.3701 27.7354 14.3701 27.294V19.8254C14.3701 19.384 14.5456 18.9607 14.8577 18.6486C15.1698 18.3365 15.5932 18.1611 16.0346 18.1611C16.476 18.1611 16.8993 18.3365 17.2115 18.6486C17.5236 18.9607 17.6991 19.384 17.6991 19.8254V27.294Z" fill="#EBC553"/>
<path d="M11.2823 27.294C11.2823 27.7354 11.1068 28.1587 10.7946 28.4708C10.4825 28.7829 10.0592 28.9582 9.61777 28.9582C9.17634 28.9582 8.75304 28.7829 8.4409 28.4708C8.12876 28.1587 7.95328 27.7354 7.95328 27.294V19.8254C7.95328 19.384 8.12876 18.9607 8.4409 18.6486C8.75304 18.3365 9.17634 18.1611 9.61777 18.1611C10.0592 18.1611 10.4825 18.3365 10.7946 18.6486C11.1068 18.9607 11.2823 19.384 11.2823 19.8254V27.294Z" fill="#EBC553"/>
</svg>
