<svg xmlns="http://www.w3.org/2000/svg" xmlns:xlink="http://www.w3.org/1999/xlink" width="118.531" height="77.659" viewBox="0 0 118.531 77.659"><defs><linearGradient id="a" y1="0.5" x2="1" y2="0.5" gradientUnits="objectBoundingBox"><stop offset="0" stop-color="#646464"/><stop offset="1"/></linearGradient><linearGradient id="b" y1="0.5" x2="1" y2="0.5" gradientUnits="objectBoundingBox"><stop offset="0" stop-color="#fd2411"/><stop offset="0.313" stop-color="#de160c"/><stop offset="0.764" stop-color="#b70606"/><stop offset="1" stop-color="#a80004"/></linearGradient><linearGradient id="c" x1="0.5" x2="0.5" y2="1" gradientUnits="objectBoundingBox"><stop offset="0"/><stop offset="1" stop-color="#646464"/></linearGradient><linearGradient id="d" x1="0.5" x2="0.5" y2="1" gradientUnits="objectBoundingBox"><stop offset="0" stop-color="#a80004"/><stop offset="1" stop-color="#fd2411"/></linearGradient></defs><g transform="translate(0.694)"><g transform="translate(40.482 0)"><path d="M-3405.051,2103.191a6.348,6.348,0,0,1,6.341-6.341,6.351,6.351,0,0,1,6.344,6.341v1.283l4.467,2.579v-3.862a10.821,10.821,0,0,0-10.81-10.807,10.82,10.82,0,0,0-10.808,10.807v3.862l4.467-2.579Z" transform="translate(3416.896 -2092.383)" fill="url(#a)"/><path d="M-3600.917,2436.154l-4.842-2.795-4.467-2.579-3.809-2.2a5.083,5.083,0,0,0-5.071,0l-3.805,2.2-4.467,2.583-4.842,2.795a5.068,5.068,0,0,0-2.536,4.39v15.144a5.078,5.078,0,0,0,2.536,4.394l13.114,7.571a5.067,5.067,0,0,0,5.071,0l13.117-7.571a5.078,5.078,0,0,0,2.536-4.394v-15.144A5.068,5.068,0,0,0-3600.917,2436.154Zm-14.52,24.689h-2.263a1.114,1.114,0,0,1-1.027-.681l-8.058-19.209a.711.711,0,0,1,.654-.984h3.812a.706.706,0,0,1,.661.456l5.088,13.26,5.089-13.26a.711.711,0,0,1,.66-.456h3.815a.708.708,0,0,1,.651.984l-8.055,19.209A1.114,1.114,0,0,1-3615.437,2460.843Z" transform="translate(3634.755 -2416.814)" fill="url(#b)"/></g><g transform="translate(0 60.999)"><g transform="translate(0 0)"><path d="M40.81,15.085A4.52,4.52,0,0,1,39.86,12V4.715h3.5v7.3a1.259,1.259,0,0,0,1.4,1.444,1.829,1.829,0,0,0,1.714-.863V4.715H50V15.952H46.715l-.1-1.215a3.611,3.611,0,0,1-3,1.423A3.537,3.537,0,0,1,40.81,15.085Zm-6.756.223a3.489,3.489,0,0,1-.862-2.586V7.145H31.759V4.715h1.434V1.921h3.5V4.715h1.848v2.43H36.693v5.141a1.314,1.314,0,0,0,.229.883,1.227,1.227,0,0,0,.9.249,5.039,5.039,0,0,0,.872-.063v2.5a6.442,6.442,0,0,1-1.974.3A3.665,3.665,0,0,1,34.055,15.308Zm-18.388-.223A4.52,4.52,0,0,1,14.717,12V4.715h3.5v7.3a1.258,1.258,0,0,0,1.4,1.444,1.829,1.829,0,0,0,1.714-.863V4.715h3.521V15.952H21.572l-.1-1.215a3.61,3.61,0,0,1-3,1.423A3.538,3.538,0,0,1,15.667,15.085Zm45.36-.468a5.322,5.322,0,0,1-1.6-4.014v-.291a6.9,6.9,0,0,1,.639-3.043,4.67,4.67,0,0,1,1.864-2.04,5.623,5.623,0,0,1,2.908-.722,4.868,4.868,0,0,1,3.739,1.469,5.778,5.778,0,0,1,1.371,4.1v1.36H62.99a2.524,2.524,0,0,0,.821,1.486,2.438,2.438,0,0,0,1.641.54,3.144,3.144,0,0,0,2.6-1.164l1.6,1.891a4.467,4.467,0,0,1-1.853,1.438,6.274,6.274,0,0,1-2.581.534A5.774,5.774,0,0,1,61.027,14.617ZM62.99,9.242h3.531V8.972a1.735,1.735,0,0,0-.426-1.3,1.7,1.7,0,0,0-1.278-.462Q63.28,7.207,62.99,9.242Zm-36.038,6.71V0h3.51V15.953Zm24.987,0V4.715h3.282l.115,1.443A2.71,2.71,0,0,1,57.8,4.507a3.387,3.387,0,0,1,.976.125l-.063,3.25L57.558,7.8a2.072,2.072,0,0,0-2.119,1.039v7.115Zm-46.891,0L0,.83H4.04l3,11.009L10.053.83h4.072L9.035,15.952Z" stroke="rgba(0,0,0,0)" stroke-miterlimit="10" stroke-width="1" fill="url(#c)"/><path d="M38.074,15.122l-5.36-9.41v9.41H29.07V0h3.645l5.349,9.409V0H41.7V15.122Zm-22.848,0V0H21.26a7.019,7.019,0,0,1,3.069.639A4.813,4.813,0,0,1,26.4,2.456a4.967,4.967,0,0,1,.732,2.675,4.378,4.378,0,0,1-1.584,3.537A6.574,6.574,0,0,1,21.2,9.992H18.871v5.131Zm3.645-7.946H21.26a2.253,2.253,0,0,0,1.616-.53,1.966,1.966,0,0,0,.556-1.5,2.436,2.436,0,0,0-.571-1.693A2.024,2.024,0,0,0,21.3,2.815H18.871ZM5.048,15.122,0,0H4.04l3,11.009L10.054,0h4.071L9.035,15.122Z" transform="translate(75.639 0.831)" stroke="rgba(0,0,0,0)" stroke-miterlimit="10" stroke-width="1" fill="url(#d)"/></g></g></g></svg>