<svg xmlns="http://www.w3.org/2000/svg" xmlns:xlink="http://www.w3.org/1999/xlink" width="244.479" height="230.168" viewBox="0 0 244.479 230.168"><defs><linearGradient id="a" x1="0.5" x2="0.5" y2="1" gradientUnits="objectBoundingBox"><stop offset="0"/><stop offset="1" stop-color="#646464"/></linearGradient><linearGradient id="b" x1="0.5" x2="0.5" y2="1" gradientUnits="objectBoundingBox"><stop offset="0" stop-color="#fd2411"/><stop offset="1" stop-color="#a80004"/></linearGradient><linearGradient id="h" x1="0.5" x2="0.5" y2="1" gradientUnits="objectBoundingBox"><stop offset="0" stop-color="#d90005"/><stop offset="1" stop-color="#a80004"/></linearGradient><radialGradient id="i" cx="0.5" cy="0.5" r="0.5" gradientUnits="objectBoundingBox"><stop offset="0" stop-color="#646464"/><stop offset="1"/></radialGradient><linearGradient id="j" x1="0.5" y1="0" x2="0.5" y2="1" xlink:href="#i"/><linearGradient id="o" x1="0.5" x2="0.5" y2="1" gradientUnits="objectBoundingBox"><stop offset="0" stop-color="#a80004"/><stop offset="1" stop-color="#fd2411"/></linearGradient><linearGradient id="w" x1="0.5" x2="0.5" y2="1" gradientUnits="objectBoundingBox"><stop offset="0" stop-color="#263238"/><stop offset="1" stop-color="#6e767a"/></linearGradient></defs><g transform="translate(0)"><g transform="translate(0 0)"><path d="M188.757,75.227h0c-10.128-6.748-25.471-7.121-36.08-3.285C133.688,78.8,136.22,94.1,119.762,104.857S87.48,111.82,71.655,125.783,54.4,166.174,60.895,178.536s13.926,21.433,7.6,42.707-5.7,45.986,19.622,58.994,44.942-14.723,61.4-9.02,47.474,30.953,81.655,23.42,18.99-33.447,41.144-40.821,34.814-32.833,27.218-59.716-26.585-32.054-22.154-48.961c3.342-12.767,7.824-25.053-.7-37.346-10.995-15.863-29.813-22.667-48.043-21.059-6.792.633-14.559.842-21.654-.8C198.916,84.044,195.188,79.518,188.757,75.227Z" transform="translate(-57.264 -69.495)" fill="#d90005"/><path d="M188.757,75.227h0c-10.128-6.748-25.471-7.121-36.08-3.285C133.688,78.8,136.22,94.1,119.762,104.857S87.48,111.82,71.655,125.783,54.4,166.174,60.895,178.536s13.926,21.433,7.6,42.707-5.7,45.986,19.622,58.994,44.942-14.723,61.4-9.02,47.474,30.953,81.655,23.42,18.99-33.447,41.144-40.821,34.814-32.833,27.218-59.716-26.585-32.054-22.154-48.961c3.342-12.767,7.824-25.053-.7-37.346-10.995-15.863-29.813-22.667-48.043-21.059-6.792.633-14.559.842-21.654-.8C198.916,84.044,195.188,79.518,188.757,75.227Z" transform="translate(-57.264 -69.495)" fill="#fff" opacity="0.7"/><path d="M286.749,169.578,180.3,194.79l-.1-.07,97-48.36c.076-.367.146-.734.247-1.114,1.551-5.931,3.348-11.761,3.975-17.534l-101.17,66.52h-.114l89.548-94.39a49.232,49.232,0,0,0-13.331-8.615l-76.331,102.5h-.12L226.3,87.024a75.414,75.414,0,0,1-14.761-.215l-31.9,106.518-.114.057,7.3-119.26a37.979,37.979,0,0,0-14.85-4.3l7.159,123.267-.082.089L144.473,76.435c-4.887,3.652-7.64,8.229-10.583,12.951l44.695,103.651-.051.108-63.3-85.522a68.43,68.43,0,0,1-13.293,4.9l76.129,80.648v.127L73.719,124.244c-.633.525-1.323,1.07-1.988,1.652a38.688,38.688,0,0,0-8.178,10.3l114.032,57.291.038.114L57.47,164.755a36.031,36.031,0,0,0,3.5,13.894c.316.633.633,1.2.956,1.791l115.336,13.5.07.1L70.991,206.152a49.841,49.841,0,0,1-2.045,13.926l108.189-25.623.1.07L65.762,250.106a39.878,39.878,0,0,0,5.184,14.786L177.154,195.03h.114L94.094,282.7a32.412,32.412,0,0,0,18.755-.513l64.533-86.655h.12l-32.624,75.008a14.471,14.471,0,0,1,4.709.785,52.928,52.928,0,0,1,4.982,2.064l23.2-77.458.114-.057-5.311,86.807c3.488,1.779,7.178,3.57,11.033,5.241l-5.33-91.751.082-.089,29.383,99.188a66.23,66.23,0,0,0,14.122.741l-43.043-99.8.051-.108,68.008,91.909a27.642,27.642,0,0,0,8.463-11.394l-76-80.528v-.127l89.668,59.348a24.894,24.894,0,0,1,3.349-1.393,40.358,40.358,0,0,0,11.394-5.931L179.826,195.777l-.038-.114L299.75,224.458a51.986,51.986,0,0,0,2.057-14.894L180.148,195.328l-.07-.1L294.87,182.149A84.465,84.465,0,0,0,286.749,169.578ZM177.192,194.454l.367-.089-.272.139Zm.139.544h-.114l.323-.215Zm.2.443h-.1l.228-.3ZM177.439,194l-.07-.076.38.044Zm.468,1.772-.089.057.108-.367Zm-.184-2.177-.038-.095.342.171Zm1.443-.449v.38l-.089-.291Zm-.525-.063.152.354-.184-.247Zm-.513.127.26.279-.253-.171Zm.165,2.861v-.38l.089.291Zm.525.063-.152-.354.184.247Zm-.057-.994h-.184l-.165-.082-.127-.133-.07-.171v-.184l.051-.177.114-.146.152-.1.177-.044h.184l.165.082.127.133.07.171v.184l-.051.177-.114.146-.152.1Zm.31.589.253.171v.108Zm1.032-1.488h.114l-.323.215Zm-.2-.443h.1l-.228.3Zm-.348-.354.089-.057-.108.361Zm-.12,2.1.3.076.038.095Zm.279-.3.26.019.07.076Zm.165-.373.272-.139.095.051Z" transform="translate(-57.339 -69.615)" fill="#fff"/></g><g transform="translate(21.038 219.964)"><ellipse cx="99.062" cy="5.102" rx="99.062" ry="5.102" fill="url(#a)"/></g><g transform="translate(43.509 134.607)"><path d="M153.262,282.15H275.624a2.715,2.715,0,0,1,2.715,2.716v78.553H150.54V284.866a2.715,2.715,0,0,1,2.722-2.715Z" transform="translate(-135.007 -282.15)" stroke="#263238" stroke-linecap="round" stroke-linejoin="round" stroke-width="1" fill="url(#b)"/><path d="M163.632,291.89H272.866a2.716,2.716,0,0,1,2.716,2.716v73.483H160.91V294.612a2.715,2.715,0,0,1,2.722-2.722Z" transform="translate(-138.813 -285.725)" stroke="#263238" stroke-linecap="round" stroke-linejoin="round" stroke-width="1" fill="url(#a)"/><path d="M268.237,416.172H136.944C130.9,416.172,126,412.513,126,408H279.182C279.182,412.513,274.283,416.172,268.237,416.172Z" transform="translate(-126 -328.339)" stroke="#263238" stroke-linecap="round" stroke-linejoin="round" stroke-width="1" fill="url(#b)"/></g><g transform="translate(67.252 59.775)"><path d="M218.655,163.93c-8.431,8.02-30,16.122-55.145,33.308,0,0,1.57,58.07,55.145,89.814Z" transform="translate(-163.51 -163.93)" stroke="#263238" stroke-linecap="round" stroke-linejoin="round" stroke-width="1" fill="url(#b)"/><path d="M250.63,163.93c8.425,8.02,30,16.122,55.145,33.308,0,0-1.57,58.07-55.145,89.814Z" transform="translate(-195.485 -163.93)" stroke="#263238" stroke-linecap="round" stroke-linejoin="round" stroke-width="1" fill="url(#a)"/><path d="M221,171.74c-10.172,7.21-27.8,14.084-51.1,30,0,0,1.456,53.8,51.1,83.231,49.645-29.415,51.1-83.231,51.1-83.231C248.795,185.83,231.249,178.95,221,171.74Z" transform="translate(-165.855 -166.796)" stroke="#263238" stroke-linecap="round" stroke-linejoin="round" stroke-width="1" fill="url(#a)"/><path d="M274.116,210.11c-35.548,10.761-62.665,42-75,58.475a101.84,101.84,0,0,0,32.6,30.472c49.645-29.415,51.1-83.231,51.1-83.231Q278.325,212.762,274.116,210.11Z" transform="translate(-176.579 -180.879)" stroke="#263238" stroke-linecap="round" stroke-linejoin="round" stroke-width="1" fill="url(#h)"/><path d="M242.707,217.046h-24.66A2.048,2.048,0,0,1,216,215V203.391a14.37,14.37,0,1,1,28.741,0l0,11.607a2.048,2.048,0,0,1-2.031,2.048Zm-22.6-4.1h20.548v-9.559a10.275,10.275,0,1,0-20.55,0Z" transform="translate(-175.038 -156.697)" fill="#fff" stroke="#263238" stroke-linecap="round" stroke-linejoin="round" stroke-width="1"/><rect width="31.372" height="26.511" transform="translate(39.459 54.755)" fill="#fff" stroke="#263238" stroke-linecap="round" stroke-linejoin="round" stroke-width="1"/><path d="M248.741,265.745a3.416,3.416,0,1,0-5.038,3.006l-.573,6.021h4.39l-.573-6.021A3.407,3.407,0,0,0,248.741,265.745Z" transform="translate(-190.335 -199.981)" stroke="#263238" stroke-linecap="round" stroke-linejoin="round" stroke-width="1" fill="url(#i)"/></g><g transform="translate(5.77 18.524)"><path d="M401.506,257.539l-.076-.949" transform="translate(-189.349 -156.686)" fill="none" stroke="#263238" stroke-linecap="round" stroke-linejoin="round" stroke-width="1"/><path d="M287.952,202.689a98.112,98.112,0,0,0-194.579-4.361q-.405,2.7-.633,5.412" transform="translate(-76.054 -104.678)" fill="none" stroke="#263238" stroke-linecap="round" stroke-linejoin="round" stroke-width="1" stroke-dasharray="3.008 3.008"/><path d="M92.516,256.74l-.076.943" transform="translate(-75.944 -156.741)" fill="none" stroke="#263238" stroke-linecap="round" stroke-linejoin="round" stroke-width="1"/><path d="M120.376,218.8l5.608-22.819H108.97Z" transform="translate(-82.011 -134.441)" stroke="#263238" stroke-linecap="round" stroke-linejoin="round" stroke-width="1" fill="url(#j)"/><path d="M121.433,219.3l1.247-21.952H111.85Z" transform="translate(-83.068 -134.944)" stroke="#263238" stroke-linecap="round" stroke-linejoin="round" stroke-width="1" fill="url(#b)"/><path d="M120.039,218.311,118.88,194.65H108.05Z" transform="translate(-81.673 -133.953)" stroke="#263238" stroke-linecap="round" stroke-linejoin="round" stroke-width="1" fill="url(#b)"/><path d="M84.909,191.089l-2.791-3.159H67.42l6.893,27.915h30.814l-4.887-24.756Z" transform="translate(-66.761 -131.487)" stroke="#263238" stroke-linecap="round" stroke-linejoin="round" stroke-width="1" fill="url(#j)"/><rect width="41.353" height="24.477" rx="3.67" transform="translate(32.042 16.401)" stroke="#263238" stroke-linecap="round" stroke-linejoin="round" stroke-width="1" fill="url(#a)"/><rect width="41.353" height="8.862" transform="translate(32.042 21.04)" stroke="#263238" stroke-linecap="round" stroke-linejoin="round" stroke-width="1" fill="url(#o)"/><path d="M166.536,156.158a1.728,1.728,0,1,0-1.728,1.728A1.728,1.728,0,0,0,166.536,156.158Z" transform="translate(-101.87 -119.192)" fill="#fff" stroke="#263238" stroke-linecap="round" stroke-linejoin="round" stroke-width="1"/><path d="M174.126,156.158a1.728,1.728,0,1,0-1.728,1.728A1.728,1.728,0,0,0,174.126,156.158Z" transform="translate(-104.656 -119.192)" fill="#fff" stroke="#263238" stroke-linecap="round" stroke-linejoin="round" stroke-width="1"/><rect width="44.283" height="28.712" transform="translate(95.41)" stroke="#263238" stroke-linecap="round" stroke-linejoin="round" stroke-width="1" fill="url(#b)"/><rect width="40.118" height="24.832" transform="translate(97.568 1.823)" stroke="#263238" stroke-linecap="round" stroke-linejoin="round" stroke-width="1" fill="url(#a)"/><path d="M233.36,124.728c0-2.709-2.2-7.368-4.912-7.368s-4.918,4.659-4.918,7.368,2.2,3.38,4.918,3.38S233.36,127.418,233.36,124.728Z" transform="translate(-124.056 -105.587)" fill="#fff" stroke="#263238" stroke-linecap="round" stroke-linejoin="round" stroke-width="1"/><circle cx="3.38" cy="3.38" r="3.38" transform="translate(101.012 5.912)" fill="#fff" stroke="#263238" stroke-linecap="round" stroke-linejoin="round" stroke-width="1"/><line x2="8.184" transform="translate(114.216 6.551)" fill="none" stroke="#fff" stroke-linecap="round" stroke-linejoin="round" stroke-width="2"/><line x2="8.184" transform="translate(114.216 10.096)" fill="none" stroke="#fff" stroke-linecap="round" stroke-linejoin="round" stroke-width="2"/><line x2="19.097" transform="translate(114.216 16.375)" fill="none" stroke="#fff" stroke-linecap="round" stroke-linejoin="round" stroke-width="2"/><line x2="19.097" transform="translate(114.216 21.015)" fill="none" stroke="#fff" stroke-linecap="round" stroke-linejoin="round" stroke-width="2"/><rect width="40.315" height="24.522" rx="5.83" transform="translate(163.671 16.401)" fill="url(#j)"/><path d="M346.718,143.572l18.546-15.224v-.7c0-1.645-.822-2.979-1.836-2.979H326.792c-1.015,0-1.839,1.332-1.842,2.979v.832l18.211,15.163A2.651,2.651,0,0,0,346.718,143.572Z" transform="translate(-161.279 -108.295)" fill="url(#o)"/><path d="M.007,17.645Q0,17.541,0,17.435V3.131A3.131,3.131,0,0,1,3.131,0H37.615a3.131,3.131,0,0,1,3.131,3.131v14.3a3.131,3.131,0,0,1-3.131,3.131H4.928L.007,26.231Z" transform="translate(186.129 59.152)" fill="url(#a)"/><path d="M9.208,2.926a2.114,2.114,0,1,1,1.958,1.3h-.007A2.113,2.113,0,0,1,9.208,2.926Zm-9.045,0a2.114,2.114,0,1,1,1.958,1.3H2.113A2.113,2.113,0,0,1,.162,2.926ZM18.1,2.112a2.114,2.114,0,1,1,2.114,2.116A2.114,2.114,0,0,1,18.1,2.112Z" transform="translate(196.111 67.691)" fill="url(#o)"/><path d="M104.53,270.774a1.063,1.063,0,0,0-.842-.418H76.343l-1.051-3.165a1.063,1.063,0,0,0-1.006-.722H67.361a1.063,1.063,0,0,0,0,2.12H73.52L80.2,288.624a1.057,1.057,0,0,0,1.006.722h.386a3.614,3.614,0,0,0-.582,1.969,3.659,3.659,0,1,0,6.729-1.969H92.8a3.614,3.614,0,0,0-.582,1.969,3.659,3.659,0,1,0,7.311,0,3.614,3.614,0,0,0-.582-1.969h.817a1.063,1.063,0,1,0,0-2.121h-17.8l-1.171-3.5h19.863a1.063,1.063,0,0,0,1.025-.785l3.026-11.242A1.051,1.051,0,0,0,104.53,270.774ZM84.66,292.846a1.532,1.532,0,1,1,1.532-1.532A1.532,1.532,0,0,1,84.66,292.846Zm11.248,0a1.546,1.546,0,1,0-.019,0ZM98.738,281.6H94.807v-9.1h3.931Zm-9.988-9.1H92.68v9.121H88.749Zm-2.12,9.121H82.7V272.5h3.931ZM77.052,272.5h3.519v9.121H80.1Zm23.806,5.368V272.5H102.3Z" transform="translate(-66.38 -160.312)" fill="url(#j)"/><path d="M390.276,265.17a15.3,15.3,0,1,0,15.293,15.295A15.3,15.3,0,0,0,390.276,265.17Zm0,1.9c1.266,0,2.646,1.658,3.621,4.431h-7.241C387.649,268.727,388.991,267.069,390.276,267.069Zm4.171,6.33a29.758,29.758,0,0,1,.766,6.1h-9.881a29.747,29.747,0,0,1,.766-6.1Zm.8,8.014a28.478,28.478,0,0,1-1.051,7.07h-7.811a28.491,28.491,0,0,1-1.019-7.045Zm-11.786-1.9H376.92a13.349,13.349,0,0,1,1.975-6.1h5.241a32.24,32.24,0,0,0-.709,6.1Zm0,1.9a31.32,31.32,0,0,0,.905,7.07h-4.817a13.293,13.293,0,0,1-2.627-7.045Zm1.5,8.969a13.588,13.588,0,0,0,1.481,2.943,13.388,13.388,0,0,1-5.171-2.943Zm2.057,0h6.513c-.93,2.215-2.127,3.507-3.253,3.507S387.953,292.572,387.016,290.382Zm8.571,0h3.69a13.388,13.388,0,0,1-5.172,2.943A13.583,13.583,0,0,0,395.586,290.382Zm.595-1.9a30.965,30.965,0,0,0,.962-7.07h6.507a13.292,13.292,0,0,1-2.652,7.07Zm.962-8.969a32.235,32.235,0,0,0-.709-6.1h5.241a13.35,13.35,0,0,1,1.975,6.1Zm3.1-7.995h-4.311a14.7,14.7,0,0,0-1.8-3.887,13.438,13.438,0,0,1,6.089,3.887Zm-13.78-3.887a14.5,14.5,0,0,0-1.8,3.887H380.35a13.439,13.439,0,0,1,6.089-3.887Z" transform="translate(-179.638 -159.835)" fill="url(#w)"/></g></g></svg>