<svg xmlns="http://www.w3.org/2000/svg" xmlns:xlink="http://www.w3.org/1999/xlink" width="104" height="115" viewBox="0 0 104 115"><defs><linearGradient id="a" x1="0.5" x2="0.5" y2="1" gradientUnits="objectBoundingBox"><stop offset="0" stop-color="#646464"/><stop offset="1"/></linearGradient></defs><path d="M78.487,0a15.456,15.456,0,0,1,13.4,7.737l21.063,36.593a15.372,15.372,0,0,1,0,15.342L91.886,96.263A15.456,15.456,0,0,1,78.487,104H36.512a15.456,15.456,0,0,1-13.4-7.737L2.051,59.671a15.371,15.371,0,0,1,0-15.342L23.114,7.737A15.456,15.456,0,0,1,36.512,0Z" transform="translate(104 0) rotate(90)" fill="#fff"/><path d="M44.329,112.949,7.736,91.886A15.458,15.458,0,0,1,0,78.488V36.512a15.456,15.456,0,0,1,7.736-13.4L44.329,2.051a15.369,15.369,0,0,1,15.342,0L96.263,23.114A15.456,15.456,0,0,1,104,36.512V78.488a15.458,15.458,0,0,1-7.736,13.4L59.671,112.949a15.373,15.373,0,0,1-15.342,0ZM44.614,4.108,9.378,24.39a14.883,14.883,0,0,0-7.449,12.9V77.709a14.885,14.885,0,0,0,7.449,12.9l35.235,20.282a14.8,14.8,0,0,0,14.772,0L94.621,90.61a14.884,14.884,0,0,0,7.45-12.9V37.291a14.882,14.882,0,0,0-7.45-12.9L59.386,4.108a14.8,14.8,0,0,0-14.772,0Zm-3.056,54.94a10.1,10.1,0,0,1,5.888-9.158.912.912,0,0,1,.78,1.649,8.291,8.291,0,0,0-4.845,7.508,8.657,8.657,0,0,0,17.3,0,8.37,8.37,0,0,0-5-7.576.914.914,0,0,1-.459-1.206.9.9,0,0,1,1.2-.456,10.193,10.193,0,0,1,6.079,9.238,10.479,10.479,0,0,1-20.949,0Zm9.565-1.8V46.7a.909.909,0,1,1,1.818,0V57.25a.909.909,0,1,1-1.818,0Z" transform="translate(0 0)" fill="url(#a)"/></svg>