<svg xmlns="http://www.w3.org/2000/svg" xmlns:xlink="http://www.w3.org/1999/xlink" width="104" height="115" viewBox="0 0 104 115"><defs><linearGradient id="a" y1="0.5" x2="1" y2="0.5" gradientUnits="objectBoundingBox"><stop offset="0" stop-color="#fd2411"/><stop offset="1" stop-color="#7f1209"/></linearGradient></defs><path d="M78.488,0a15.456,15.456,0,0,1,13.4,7.737l21.064,36.593a15.372,15.372,0,0,1,0,15.342L91.886,96.263A15.456,15.456,0,0,1,78.488,104H36.512a15.456,15.456,0,0,1-13.4-7.737L2.051,59.671a15.372,15.372,0,0,1,0-15.342L23.114,7.737A15.457,15.457,0,0,1,36.512,0Z" transform="translate(104 0) rotate(90)" fill="url(#a)"/><path d="M0,14.626a11.141,11.141,0,0,1,6.511-10.1,1.007,1.007,0,0,1,.863,1.819,9.142,9.142,0,0,0-5.358,8.28,9.409,9.409,0,0,0,9.567,9.217,9.409,9.409,0,0,0,9.567-9.217,9.23,9.23,0,0,0-5.53-8.355,1,1,0,1,1,.823-1.833,11.24,11.24,0,0,1,6.723,10.188A11.422,11.422,0,0,1,11.582,25.853,11.422,11.422,0,0,1,0,14.626Zm10.577-1.983V1.006a1.005,1.005,0,1,1,2.01,0V12.643a1.005,1.005,0,1,1-2.01,0Z" transform="translate(40.45 44.58)" fill="#fff"/></svg>