<svg xmlns="http://www.w3.org/2000/svg" width="28.847" height="31.748" viewBox="0 0 28.847 31.748"><path d="M40.3,93.766l-6.182,6.8a.933.933,0,0,1-1.442,0l-3.09-3.4a1.172,1.172,0,0,1,0-1.588.934.934,0,0,1,1.442,0l2.37,2.608,5.46-6.01a.934.934,0,0,1,1.442,0A1.172,1.172,0,0,1,40.3,93.766Zm8.14-9.637c-.31-.227-.619-.341-.928-.114A11.419,11.419,0,0,1,35.144,80.84a.934.934,0,0,0-1.442,0,11.419,11.419,0,0,1-12.363,3.175c-.309-.227-.618-.113-.927.114a1.45,1.45,0,0,0-.413.906c0,17.8,7.108,23.7,14.011,27.1a.8.8,0,0,0,.824,0c6.9-3.4,14.011-9.3,14.011-27.1A1.456,1.456,0,0,0,48.435,84.13Z" transform="translate(-20 -80.501)" fill="#fff"/></svg>