<svg xmlns="http://www.w3.org/2000/svg" width="35.302" height="50" viewBox="0 0 35.302 50"><path d="M-3405.285,2103.232a6.2,6.2,0,0,1,6.01-6.365,6.2,6.2,0,0,1,6.012,6.365v1.288l4.234,2.589v-3.876c0-5.981-4.6-10.848-10.247-10.848s-10.244,4.867-10.244,10.848v3.876l4.234-2.589Z" transform="translate(3416.925 -2092.384)" fill="#fff"/><path d="M-3601.915,2435.836l-4.7-2.687-4.335-2.479-3.7-2.115a4.97,4.97,0,0,0-4.921,0l-3.693,2.112-4.335,2.482-4.7,2.687a4.865,4.865,0,0,0-2.462,4.221v14.56a4.875,4.875,0,0,0,2.462,4.224l12.728,7.279a4.957,4.957,0,0,0,4.921,0l12.731-7.279a4.875,4.875,0,0,0,2.461-4.224v-14.56A4.865,4.865,0,0,0-3601.915,2435.836Zm-14.092,23.736h-2.2a1.081,1.081,0,0,1-1-.654l-7.821-18.468a.684.684,0,0,1,.635-.946h3.7a.686.686,0,0,1,.642.438l4.938,12.749,4.939-12.749a.689.689,0,0,1,.641-.438h3.7a.681.681,0,0,1,.632.946l-7.818,18.468A1.081,1.081,0,0,1-3616.006,2459.572Z" transform="translate(3634.756 -2416.773)" fill="#fff"/></svg>