<svg width="30" height="30" viewBox="0 0 30 30" fill="none" xmlns="http://www.w3.org/2000/svg">
<path d="M14.9101 29.2076C11.0902 29.203 7.42802 27.6834 4.72704 24.9824C2.02606 22.2814 0.506819 18.6194 0.502625 14.7998C0.507239 10.9804 2.02669 7.31886 4.72762 4.61817C7.42855 1.91748 11.0904 0.398169 14.9101 0.393555C18.7298 0.398169 22.3918 1.91748 25.0927 4.61817C27.7937 7.31886 29.313 10.9804 29.3176 14.7998C29.3134 18.6194 27.7943 22.2814 25.0933 24.9824C22.3923 27.6834 18.7301 29.203 14.9101 29.2076V29.2076ZM4.83482 12.5522V20.2427H6.79256V12.5522H4.83482ZM18.6463 18.0031C18.6321 18.0237 18.22 19.5596 18.2231 19.5881C18.8884 19.9124 19.605 20.1184 20.3409 20.1968L20.5517 20.2333C20.6453 20.2428 20.8133 20.249 21.0019 20.249C21.2999 20.249 21.5916 20.238 21.7453 20.2189C22.3758 20.2106 22.9922 20.0316 23.5289 19.7009C24.0657 19.3701 24.5027 18.9001 24.7936 18.3407C24.9909 17.9406 25.08 17.4957 25.052 17.0504C25.0624 16.6829 24.9975 16.317 24.8612 15.9755C24.7249 15.6339 24.5201 15.3239 24.2594 15.0644C23.6925 14.5427 23.0192 14.1502 22.2859 13.9138C20.8592 13.3353 20.4852 13.0452 20.3615 12.4413C20.3296 12.2841 20.3336 12.1218 20.3734 11.9664C20.4132 11.811 20.4877 11.6666 20.5913 11.5441C20.782 11.3458 21.0125 11.19 21.2677 11.087C21.5229 10.984 21.7969 10.9362 22.0719 10.9466H22.1004C22.8222 10.9791 23.5324 11.1401 24.1976 11.4221C24.215 11.3952 24.6224 9.96386 24.6224 9.92107C24.1721 9.64717 23.6652 9.47972 23.1403 9.43136C22.8226 9.38732 22.502 9.36715 22.1813 9.37109C21.8631 9.36645 21.545 9.38712 21.2301 9.43291C20.5521 9.48862 19.9108 9.76393 19.4033 10.217C18.8958 10.6701 18.5499 11.2762 18.4181 11.9435C18.3451 12.4289 18.3997 12.9249 18.5766 13.3828C18.8459 13.8954 19.2208 14.3452 19.6765 14.7025C20.1323 15.0599 20.6585 15.3167 21.2207 15.456C22.5173 15.941 22.9913 16.334 23.0975 17.0172C23.1485 17.3052 23.1018 17.602 22.9648 17.8605C22.8278 18.1189 22.6083 18.3242 22.3413 18.4437C22.0267 18.5787 21.6866 18.6441 21.3443 18.6355C20.4201 18.5711 19.5113 18.3654 18.6495 18.0253L18.6463 18.0031ZM12.7685 9.35842C12.0102 9.35504 11.2616 9.52927 10.5827 9.86718C9.69321 10.3505 8.96109 11.0789 8.47331 11.9659C7.98553 12.8529 7.76254 13.8611 7.83079 14.8711C7.75928 15.8682 7.98079 16.8645 8.46799 17.7374C8.9552 18.6104 9.68694 19.322 10.5732 19.7847C11.0994 20.0239 11.663 20.1703 12.2391 20.2174H12.4151C12.5736 20.2174 12.7322 20.2316 12.8812 20.2316C13.0209 20.2325 13.1606 20.2256 13.2996 20.211C13.8757 20.1637 14.4394 20.0173 14.9657 19.7783C15.8519 19.3156 16.5835 18.6041 17.0708 17.7311C17.558 16.8582 17.7795 15.8619 17.7079 14.8648C17.776 13.8549 17.5529 12.8466 17.0651 11.9597C16.5774 11.0728 15.8454 10.3444 14.9561 9.86089C14.2766 9.52285 13.5274 9.34853 12.7685 9.35203V9.35842ZM5.81287 9.35842C5.53498 9.35842 5.26855 9.4688 5.07205 9.66528C4.87555 9.86176 4.76516 10.1283 4.76516 10.4061C4.76516 10.684 4.87555 10.9505 5.07205 11.147C5.26855 11.3435 5.53498 11.4538 5.81287 11.4538C6.09076 11.4538 6.35729 11.3435 6.55378 11.147C6.75028 10.9505 6.86068 10.684 6.86068 10.4061C6.86068 10.1285 6.75052 9.8623 6.55436 9.66586C6.35821 9.46943 6.09213 9.35884 5.81451 9.35842H5.81287ZM12.7971 18.6878H12.7385C12.1287 18.6667 11.5427 18.4468 11.0696 18.0616C10.5965 17.6764 10.2624 17.1471 10.1182 16.5544C9.81974 15.5934 9.7707 14.5723 9.97556 13.5872C10.0448 12.9996 10.2784 12.4435 10.6497 11.9828C11.021 11.5221 11.5148 11.1757 12.0743 10.9831C12.2959 10.9372 12.5216 10.9144 12.7479 10.9149C12.9873 10.9156 13.2261 10.9385 13.4613 10.9831C14.0207 11.1758 14.5144 11.5224 14.8856 11.983C15.2569 12.4437 15.4907 12.9997 15.5601 13.5872C15.7646 14.5725 15.715 15.5936 15.4158 16.5544C15.2723 17.1468 14.9387 17.6761 14.4661 18.0613C13.9936 18.4465 13.408 18.6665 12.7987 18.6878H12.7971Z" fill="#EBC553"/>
</svg>
