<svg width="25" height="29" viewBox="0 0 25 29" fill="none" xmlns="http://www.w3.org/2000/svg">
<path d="M8.82794 5.79646C8.87867 5.00395 8.87248 4.18925 8.98661 3.4015C9.06829 2.44806 9.51494 1.563 10.2335 0.930998C10.9521 0.298998 11.8869 -0.0311089 12.8431 0.0095648C13.3087 -0.0150369 13.7758 0.00246945 14.2382 0.0618703C14.8465 0.133646 15.4242 0.368061 15.9105 0.74044C16.3967 1.11282 16.7733 1.60938 17.001 2.17787C17.3682 3.05522 17.5698 3.99298 17.5955 4.94372C17.644 5.57654 17.6537 6.21175 17.6241 6.84574C17.5417 8.22965 17.996 9.59207 18.8923 10.6498C19.4899 11.4138 20.105 12.1666 20.6725 12.9544C21.5223 14.0883 22.1343 15.3822 22.4717 16.7584C22.723 17.7894 22.6961 18.8685 22.3939 19.8857C22.3527 20.0188 22.3699 20.0917 22.5015 20.1583C22.6773 20.2452 22.8331 20.3682 22.9581 20.5192C23.0832 20.6703 23.1748 20.8459 23.2275 21.0348C23.3321 21.3867 23.3861 21.7512 23.5193 22.0952C23.6298 22.3681 23.7664 22.6297 23.9268 22.8766C24.1551 23.199 24.3666 23.5328 24.5607 23.8767C24.6736 24.09 24.7036 24.3374 24.6451 24.5715C24.5866 24.8056 24.4437 25.0097 24.2438 25.1448C23.9674 25.3483 23.6753 25.5295 23.3703 25.6868C23.0533 25.8612 22.7363 26.0038 22.4098 26.1734C21.8341 26.4621 21.3218 26.8624 20.9024 27.3511C20.397 27.9624 19.7285 28.418 18.9747 28.6651C18.6844 28.778 18.3743 28.8315 18.063 28.8227C17.7516 28.8138 17.445 28.7426 17.1616 28.6133C16.8782 28.484 16.6236 28.2993 16.4128 28.07C16.202 27.8406 16.0395 27.5714 15.9345 27.2782C15.9147 27.2416 15.887 27.2099 15.8536 27.1852C15.8201 27.1606 15.7817 27.1436 15.741 27.1355C15.0657 27.0626 14.3856 27.0262 13.7119 26.9358C12.8426 26.8608 11.9669 26.9234 11.1171 27.1213C10.8095 27.1767 10.4973 27.2116 10.1898 27.2655C10.1176 27.2762 10.0524 27.3142 10.0075 27.3717C9.7699 27.7793 9.41128 28.1029 8.98158 28.2977C8.55188 28.4925 8.07206 28.5489 7.60888 28.459C7.06095 28.4246 6.52383 28.2909 6.02373 28.0644C4.984 27.5761 3.86304 27.2843 2.71718 27.2037C2.33868 27.1636 1.96631 27.079 1.60765 26.9517C1.36922 26.8802 1.16385 26.7269 1.02753 26.5186C0.891214 26.3104 0.832762 26.0607 0.86267 25.8136C0.879505 25.509 0.936431 25.2078 1.03218 24.9181C1.14862 24.5604 1.17839 24.1801 1.11925 23.8086C1.06322 23.4697 1.02694 23.1278 1.01012 22.7847C0.99537 22.5113 1.06309 22.2397 1.20439 22.0052C1.3457 21.7706 1.55408 21.5839 1.8027 21.4691C2.05929 21.3453 2.32411 21.2394 2.59528 21.1521C2.90029 21.0464 3.16571 20.8501 3.35612 20.5894C3.56695 20.3073 3.79349 20.0394 4.0059 19.7605C4.05067 19.7019 4.07368 19.6296 4.07091 19.556C3.96961 18.2296 4.2289 16.9004 4.82092 15.7092C5.51694 14.1918 6.4157 12.7761 7.49317 11.5009C8.54985 10.2263 9.07597 8.59418 8.96262 6.94243C8.9436 6.56044 8.9167 6.18003 8.8945 5.79805H8.83104M8.98971 23.929C9.13713 24.1009 9.27287 24.2825 9.39567 24.4727C9.68514 24.9648 10.1454 25.3332 10.689 25.5077C10.8728 25.5832 11.0607 25.6483 11.2517 25.7027C12.0911 25.9051 12.9647 25.9193 13.8102 25.7442C14.6557 25.5691 15.452 25.209 16.1419 24.6899C16.2126 24.6331 16.2637 24.5554 16.2878 24.468C16.4975 23.8125 16.6263 23.1338 16.6713 22.4471C16.7105 21.8146 16.7985 21.1861 16.9345 20.5672C16.9869 20.2789 17.1082 20.0076 17.2882 19.7763C17.4681 19.5451 17.7016 19.3607 17.9681 19.239C18.0402 19.1897 18.0897 19.1139 18.1059 19.0282C18.1166 18.8935 18.157 18.7627 18.224 18.6453C18.2909 18.5279 18.3829 18.4266 18.4933 18.3487C18.6038 18.2708 18.7298 18.2182 18.8629 18.1945C18.996 18.1709 19.1325 18.1768 19.2631 18.2119C19.764 18.2879 20.2451 18.4619 20.6787 18.7239C21.1543 18.9933 21.6423 19.2707 21.544 19.9427C21.7216 20.0077 21.7758 19.9221 21.7948 19.7842C21.8248 19.5972 21.8009 19.4054 21.7259 19.2314C21.651 19.0574 21.528 18.9083 21.3714 18.8015C21.0176 18.5464 20.6469 18.3155 20.2619 18.1105C20.1034 18.0201 20.0146 17.952 20.0653 17.7459C20.1106 17.5522 20.1306 17.3535 20.1253 17.1547C20.0972 16.3231 19.9042 15.5054 19.5576 14.749C19.2109 13.9926 18.7175 13.3126 18.1059 12.7483C18.0629 12.7169 18.0156 12.6923 17.9651 12.6754L17.9124 12.7309C17.9754 12.8268 18.0455 12.9179 18.1218 13.0035C18.5646 13.4496 18.9249 13.9707 19.1857 14.5426C19.6361 15.4043 19.7819 16.393 19.5994 17.3481C19.5043 17.7887 19.501 17.7824 19.0572 17.738C18.9145 17.7237 18.8431 17.6825 18.813 17.5319C18.5778 16.3996 18.1798 15.3074 17.6318 14.289C16.7381 12.5725 16.0204 10.7702 15.489 8.90943C15.475 8.8671 15.4581 8.8258 15.4383 8.7858C15.1308 8.99344 14.8468 9.21217 14.5393 9.38811C14.124 9.62586 13.6818 9.82082 13.2634 10.0538C12.8665 10.3149 12.3915 10.4309 11.9189 10.3821C11.4463 10.3333 11.0052 10.1227 10.6701 9.78595C10.567 9.6956 10.4657 9.6005 10.3531 9.51966C10.1946 9.40554 10.0266 9.3041 9.84111 9.18206L9.81092 9.32629C9.69521 9.89373 9.61093 10.4707 9.45875 11.0286C9.09056 12.2439 8.61668 13.4245 8.04194 14.5568C7.5174 15.5787 7.14702 16.6726 6.94324 17.803C6.89093 18.1548 6.85771 18.5083 6.80857 18.9125C6.73723 18.811 6.69111 18.754 6.64989 18.6937C6.36732 18.2174 6.21842 17.6737 6.21877 17.1198C6.22425 16.2826 6.42327 15.4581 6.80044 14.7106C6.99224 14.3032 7.20637 13.9054 7.4061 13.5012C7.44713 13.4015 7.48232 13.2993 7.51097 13.1953C7.45391 13.2159 7.43488 13.2159 7.42854 13.2254C7.35087 13.3475 7.26965 13.4695 7.19673 13.5947C6.57195 14.5595 6.12514 15.6283 5.87667 16.7505C5.73023 17.3181 5.75183 17.916 5.93897 18.4714C6.12612 19.0269 6.47042 19.5161 6.93047 19.8793C7.17459 20.0743 7.44722 20.2344 7.70718 20.4087C8.39462 20.8276 8.99712 21.3723 9.48275 22.0143C9.68279 22.3035 9.83065 22.6253 9.92006 22.9654C9.94874 23.0673 9.95477 23.1744 9.93709 23.2789C9.91941 23.3833 9.87853 23.4825 9.81789 23.5694C9.75725 23.6563 9.67804 23.7286 9.58608 23.7812C9.49411 23.8338 9.39177 23.8653 9.28615 23.8736L8.98816 23.9227M7.84031 28.1246C8.05906 28.0992 8.28422 28.0913 8.49821 28.0469C8.75613 28.0107 9.00175 27.9128 9.21378 27.7615C9.42581 27.6103 9.59828 27.4101 9.7165 27.1781C9.83471 26.946 9.89489 26.6889 9.89258 26.4284C9.89027 26.168 9.82527 25.912 9.70295 25.6821C9.49967 25.2541 9.24304 24.8536 8.93901 24.4901C8.16483 23.5624 7.49906 22.5493 6.95446 21.4707C6.83298 21.1981 6.68685 20.9371 6.51831 20.6909C6.30761 20.3927 6.05583 20.1259 5.77024 19.8984C5.65702 19.8055 5.5262 19.7365 5.38556 19.6956C5.24492 19.6548 5.09749 19.6429 4.95212 19.6607C4.80675 19.6785 4.66661 19.7255 4.53996 19.7991C4.41331 19.8726 4.30275 19.9711 4.21527 20.0886C4.02488 20.308 3.84669 20.5377 3.6812 20.7765C3.43369 21.1301 3.07643 21.3925 2.66494 21.523C2.45317 21.5883 2.24551 21.6667 2.04341 21.7576C1.83466 21.8401 1.65797 21.9872 1.53876 22.1774C1.41956 22.3676 1.36413 22.5909 1.38087 22.8148C1.39732 23.1123 1.43064 23.4087 1.48071 23.7024C1.56931 24.1394 1.5358 24.5924 1.38396 25.0116C1.31638 25.1987 1.27025 25.3927 1.24619 25.5901C1.20819 25.711 1.19755 25.8388 1.21484 25.9643C1.23214 26.0898 1.27715 26.21 1.34642 26.3161C1.41569 26.4222 1.50742 26.5116 1.61539 26.5779C1.72335 26.6442 1.8447 26.6858 1.97066 26.6997C2.28327 26.7762 2.60135 26.8292 2.92191 26.8582C4.00815 26.9227 5.0704 27.204 6.04617 27.6855C6.60247 27.9692 7.21595 28.1221 7.84031 28.1325M18.0394 19.5988C17.8978 19.6947 17.769 19.8082 17.6558 19.9364C17.498 20.1505 17.3769 20.3894 17.2975 20.6433C17.1726 21.1158 17.0946 21.5995 17.0645 22.0873C17.0159 23.0563 16.8433 24.0151 16.5509 24.9403C16.3825 25.4639 16.2761 26.0054 16.234 26.5538C16.2196 26.803 16.2576 27.0524 16.3455 27.286C16.4333 27.5196 16.5691 27.7323 16.7441 27.9102C16.9191 28.0882 17.1292 28.2276 17.3613 28.3194C17.5934 28.4111 17.8422 28.4533 18.0916 28.4432C18.9331 28.4034 19.7275 28.0426 20.3111 27.4351C20.5282 27.2338 20.7184 27.0008 20.9245 26.7852C21.5138 26.2388 22.1941 25.7995 22.9345 25.4871C23.2863 25.3205 23.6256 25.1293 23.9504 24.9149C24.035 24.8707 24.1092 24.8089 24.1679 24.7338C24.2267 24.6586 24.2689 24.5717 24.2914 24.479C24.3139 24.3863 24.3161 24.2898 24.2983 24.1961C24.2806 24.1023 24.2433 24.0135 24.1884 23.9354C24.0456 23.657 23.8704 23.3963 23.6667 23.1587C23.3921 22.8406 23.2003 22.4594 23.1087 22.0492C23.0381 21.7211 22.9493 21.3973 22.8424 21.0792C22.7744 20.8777 22.6471 20.7014 22.4775 20.573C22.3079 20.4447 22.1036 20.3703 21.8912 20.3596C21.7624 20.3405 21.6318 20.3405 21.503 20.3596C21.3744 20.3874 21.2516 20.4373 21.14 20.507C20.7936 20.7536 20.4296 20.9745 20.051 21.1679C19.8727 21.2671 19.6733 21.3218 19.4693 21.3273C19.2654 21.3329 19.063 21.2892 18.8795 21.1999C18.6961 21.1106 18.5369 20.9783 18.4155 20.8144C18.2941 20.6505 18.2141 20.4596 18.1822 20.2582C18.1235 20.0695 18.0885 19.8746 18.0235 19.6099M12.0633 10.206C12.4542 10.1971 12.8362 10.0879 13.1728 9.88897C13.5723 9.66707 13.9909 9.48162 14.3872 9.25497C14.6626 9.10922 14.917 8.92687 15.1434 8.71289C15.2534 8.62611 15.3376 8.51093 15.3868 8.37981C15.4361 8.24868 15.4485 8.10659 15.4228 7.96887C15.3972 7.83116 15.3345 7.70307 15.2413 7.59843C15.1482 7.49378 15.0284 7.41657 14.8946 7.37514C14.8264 7.34185 14.755 7.31332 14.6852 7.28162L13.1001 6.56678C12.9755 6.50751 12.848 6.45461 12.7181 6.40828C12.4114 6.29404 12.08 6.2632 11.7575 6.31889C11.4351 6.37458 11.1331 6.51481 10.8825 6.72528C10.4704 7.05285 10.0597 7.38306 9.65071 7.71592C9.58855 7.75519 9.53492 7.80647 9.49281 7.86674C9.4507 7.92701 9.42084 7.99507 9.40535 8.06694C9.38985 8.13881 9.38911 8.21305 9.40264 8.28531C9.41617 8.35758 9.44385 8.42642 9.4843 8.48782C9.63401 8.71587 9.81734 8.92 10.028 9.09329C10.326 9.35324 10.6622 9.5688 10.965 9.82399C11.2701 10.0853 11.66 10.2262 12.0617 10.2202M14.2812 6.89963C14.4904 6.98522 14.6695 7.06923 14.8598 7.12629C14.8968 7.13065 14.9343 7.12618 14.9693 7.11323C15.0043 7.10028 15.0357 7.07923 15.061 7.05179C15.3367 6.63054 15.459 6.12722 15.4074 5.62643C15.3557 5.12563 15.1332 4.65788 14.7773 4.30179C14.5567 4.09487 14.2644 3.98116 13.9619 3.98441C13.6594 3.98766 13.37 4.10761 13.1538 4.31922C12.9286 4.53399 12.7569 4.79855 12.6523 5.0917C12.5477 5.38484 12.5132 5.69841 12.5517 6.00727C12.555 6.03939 12.5656 6.07034 12.5826 6.09779C12.5997 6.12524 12.6227 6.14848 12.65 6.16577C12.8465 6.24343 13.051 6.3005 13.2301 6.35756C13.2833 6.07003 13.3533 5.78584 13.4395 5.5064C13.4715 5.38988 13.542 5.28763 13.6395 5.21626C13.7371 5.1449 13.8558 5.10862 13.9766 5.11332C14.0924 5.12484 14.2019 5.17207 14.2897 5.24845C14.3775 5.32484 14.4392 5.42661 14.4666 5.53969C14.5677 5.76065 14.6039 6.00579 14.571 6.24656C14.5382 6.48733 14.4378 6.71382 14.2812 6.89963M10.9615 6.38292C11.1343 6.31001 11.2913 6.25453 11.4371 6.18003C11.4608 6.16298 11.4805 6.14094 11.4948 6.11547C11.509 6.09 11.5174 6.06173 11.5195 6.03263C11.56 5.51755 11.4004 5.00669 11.0741 4.60611C10.9971 4.49463 10.8925 4.40517 10.7703 4.34658C10.6481 4.288 10.5126 4.26232 10.3775 4.27209C10.2424 4.28185 10.1123 4.32673 9.99978 4.40227C9.88731 4.47781 9.79639 4.5814 9.73623 4.7028C9.67119 4.7974 9.61819 4.8996 9.57795 5.00712C9.46226 5.31179 9.41442 5.63808 9.43824 5.9631C9.46207 6.28812 9.55684 6.60399 9.71572 6.88854C9.91228 7.25468 9.99952 7.26102 10.2912 6.95511C10.2912 6.95511 10.2912 6.94084 10.2912 6.9345C10.2912 6.92816 10.2912 6.91707 10.2912 6.91231C10.2706 6.88061 10.2468 6.8505 10.2246 6.82038C10.1021 6.65299 10.0246 6.45701 9.99939 6.25113C9.97414 6.04525 10.0018 5.83633 10.0803 5.6443C10.1079 5.57505 10.1508 5.51288 10.2057 5.46241C10.2605 5.41193 10.3259 5.37442 10.3972 5.35266C10.5161 5.35266 10.6715 5.4858 10.7602 5.6015C10.8348 5.72527 10.8839 5.86269 10.9046 6.00568C10.9268 6.13204 10.9418 6.25959 10.9491 6.38767" fill="#EBC553"/>
<path d="M9.84106 7.99806C9.90511 8.09657 9.97934 8.18796 10.0628 8.27068C10.3493 8.52054 10.6522 8.75088 10.9696 8.96015C11.1832 9.08948 11.4224 9.1714 11.6704 9.20039C11.9185 9.22937 12.1696 9.20475 12.4073 9.12817C13.212 8.90296 13.9455 8.47512 14.5377 7.88552C14.5909 7.84679 14.6499 7.81632 14.7122 7.79517L14.7614 7.85224C14.708 7.93642 14.647 8.01548 14.5791 8.08841C13.948 8.66119 13.1857 9.07045 12.3597 9.28035C12.0613 9.35586 11.75 9.36357 11.4483 9.30296C11.1465 9.24234 10.8623 9.11492 10.6162 8.93004C10.3566 8.74279 10.1098 8.53839 9.87744 8.31822C9.81603 8.23567 9.76996 8.14283 9.74121 8.04403L9.83487 7.99806" fill="#EBC553"/>
<path d="M12.3504 6.81562C12.4645 6.78075 12.5091 6.74589 12.5582 6.75698C12.664 6.78885 12.7666 6.82967 12.8655 6.87902C12.8655 6.87902 12.8559 6.94083 12.8512 6.97412C12.7529 6.95351 12.6549 6.93609 12.5582 6.91073C12.487 6.88351 12.4175 6.85174 12.3504 6.81562" fill="#EBC553"/>
<path d="M11.1647 6.94242C11.2196 6.86061 11.3031 6.80246 11.3989 6.77955C11.4947 6.75663 11.5955 6.77065 11.6814 6.8188C11.534 6.89012 11.4104 7.05654 11.1647 6.94242Z" fill="#EBC553"/>
</svg>
