<svg xmlns="http://www.w3.org/2000/svg" width="31.991" height="31.785" viewBox="0 0 31.991 31.785"><g transform="translate(0 0)"><path d="M39.945,143.569c-.912,0-1.836-.025-2.748.012-.56.025-.827-.108-.827-.74a25.254,25.254,0,0,0-.948-6.665c-.183-.644.085-.765.595-.924a11.9,11.9,0,0,0,2.566-.937c1.058-.619,1.569-.242,2.153.645a16.855,16.855,0,0,1,2.82,7.88c.049.559-.085.753-.644.74C41.927,143.544,40.942,143.569,39.945,143.569Z" transform="translate(-11.627 -128.223)" fill="#fff"/><path d="M22.453,143.593c-.95,0-1.909-.025-2.858.012-.572.025-.717-.193-.67-.729a16.354,16.354,0,0,1,3.369-8.6c.292-.377.535-.4.961-.195a15.305,15.305,0,0,0,3.32,1.217c.511.121.668.341.511.875a27.259,27.259,0,0,0-.973,6.652c-.025.585-.183.8-.791.766C24.361,143.557,23.413,143.593,22.453,143.593Z" transform="translate(-18.917 -128.247)" fill="#fff"/><path d="M22.522,141.4c.912,0,1.824.025,2.748-.012.548-.025.815.085.827.729a27.68,27.68,0,0,0,.925,6.542c.157.547-.074.632-.5.755a17.009,17.009,0,0,0-3.4,1.3.664.664,0,0,1-1.022-.231,16.413,16.413,0,0,1-3.161-8.329c-.061-.609.133-.8.742-.779C20.625,141.424,21.574,141.4,22.522,141.4Z" transform="translate(-18.914 -124.959)" fill="#fff"/><path d="M43.541,142.007a16.013,16.013,0,0,1-3.113,8.4c-.329.45-.585.583-1.094.292a13.419,13.419,0,0,0-3.3-1.264c-.608-.159-.693-.39-.547-.95a25.759,25.759,0,0,0,.863-6.323c0-.583.17-.8.779-.789,1.908.036,3.806.012,5.715.012C43.321,141.387,43.735,141.411,43.541,142.007Z" transform="translate(-11.598 -124.958)" fill="#fff"/><path d="M33.912,143.007c-.912,0-1.824-.025-2.748.012-.547.013-.84-.085-.815-.742.038-1.908.025-3.806,0-5.715,0-.509.11-.753.681-.753a26.209,26.209,0,0,0,4.657-.5c.535-.1.73,0,.876.522a31.272,31.272,0,0,1,.973,6.542c.025.535-.183.657-.657.644C35.893,143,34.909,143.007,33.912,143.007Z" transform="translate(-13.851 -127.661)" fill="#fff"/><path d="M34.029,141.4c.948,0,1.909.025,2.858-.012.5-.013.67.146.645.657a31.7,31.7,0,0,1-.9,6.323c-.121.462-.316.632-.789.511a27.26,27.26,0,0,0-4.756-.56c-.511-.023-.742-.146-.729-.717.036-1.823.025-3.66,0-5.484-.013-.534.146-.753.7-.729C32.047,141.42,33.045,141.4,34.029,141.4Z" transform="translate(-13.846 -124.955)" fill="#fff"/><path d="M28.152,143.011c-.912,0-1.824-.025-2.748.012-.585.025-.815-.146-.766-.765a33.776,33.776,0,0,1,.984-6.421c.134-.486.3-.645.863-.535a24.968,24.968,0,0,0,4.646.511c.608,0,.668.267.668.766-.012,1.909-.036,3.806.013,5.715.012.644-.244.753-.8.742C30.062,142.987,29.112,143.011,28.152,143.011Z" transform="translate(-16.384 -127.665)" fill="#fff"/><path d="M28.277,141.4c.912,0,1.824.025,2.736-.012.583-.025.8.134.789.753-.036,1.824-.023,3.649,0,5.473,0,.462-.1.668-.619.693a27.251,27.251,0,0,0-4.864.572c-.5.121-.67-.11-.779-.547a34.278,34.278,0,0,1-.912-6.19c-.036-.644.219-.778.791-.753C26.38,141.42,27.328,141.4,28.277,141.4Z" transform="translate(-16.387 -124.955)" fill="#fff"/><path d="M30.373,150.63c0-.839.061-1.677-.013-2.517-.085-.937.17-1.325,1.168-1.168,1.277.208,2.566.3,3.855.475.329.049.852,0,.583.645-.911,2.237-1.933,4.4-4.1,5.751-.413.255-.9.657-1.349.377-.352-.206-.121-.766-.134-1.168C30.36,152.223,30.373,151.421,30.373,150.63Z" transform="translate(-13.862 -122.504)" fill="#fff"/><path d="M31.331,150.693c0,.948-.036,1.909.013,2.858.036.753-.244.839-.876.572a6.437,6.437,0,0,1-3.185-3c-2.4-4.487-2.324-3.478,1.836-4.05,2.2-.3,2.213-.255,2.213,1.909Z" transform="translate(-15.915 -122.493)" fill="#fff"/><path d="M30.361,130a4.674,4.674,0,0,1,2.809,1.544,13.6,13.6,0,0,1,2.615,4.256c.206.486.182.717-.439.814a37.193,37.193,0,0,1-4.207.439c-.45.012-.8.025-.791-.621C30.386,134.305,30.361,132.176,30.361,130Z" transform="translate(-13.85 -130)" fill="#fff"/><path d="M31.291,130.066c0,2.139-.012,4.292.013,6.457,0,.5-.255.534-.632.522a28.167,28.167,0,0,1-4.415-.475c-.242-.048-.522,0-.473-.437.182-2.067,3.259-5.63,5.314-6.117A1.727,1.727,0,0,0,31.291,130.066Z" transform="translate(-15.876 -129.992)" fill="#fff"/><path d="M32.649,153.635a15.409,15.409,0,0,0,3.38-5.594c.134-.388.316-.547.753-.377.742.292,1.52.5,2.262.791,1.569.608,1.569.632.244,1.751A16.267,16.267,0,0,1,32.649,153.635Z" transform="translate(-12.83 -122.2)" fill="#fff"/><path d="M29.376,153.436a14.546,14.546,0,0,1-7.078-3.927c-.341-.341-.328-.522.134-.717a31.133,31.133,0,0,1,3.089-1.132c.535-.17.644.061.8.462A16.261,16.261,0,0,0,29.376,153.436Z" transform="translate(-17.523 -122.197)" fill="#fff"/><path d="M29.659,130.261a14.155,14.155,0,0,0-3.283,5.242c-.159.424-.377.632-.84.449-.96-.365-1.921-.717-2.894-1.045-.511-.17-.608-.365-.182-.755A16.146,16.146,0,0,1,29.659,130.261Z" transform="translate(-17.465 -129.884)" fill="#fff"/><path d="M40.225,134.6c-.365.182-.547.3-.753.377-1,.354-2.044,1.046-2.992.937-1.046-.121-.948-1.593-1.459-2.42a24.9,24.9,0,0,0-2.347-3.221A16.05,16.05,0,0,1,40.225,134.6Z" transform="translate(-12.819 -129.88)" fill="#fff"/></g></svg>