<svg xmlns="http://www.w3.org/2000/svg" xmlns:xlink="http://www.w3.org/1999/xlink" width="144" height="208" viewBox="0 0 144 208"><defs><clipPath id="a"><rect width="144" height="208" transform="translate(0 -0.446)" fill="#fff" stroke="#707070" stroke-width="1"/></clipPath><linearGradient id="b" y1="0.5" x2="1" y2="0.5" gradientUnits="objectBoundingBox"><stop offset="0" stop-color="#646464"/><stop offset="1"/></linearGradient><linearGradient id="c" y1="0.5" x2="1" y2="0.5" gradientUnits="objectBoundingBox"><stop offset="0" stop-color="#fd2411"/><stop offset="0.313" stop-color="#de160c"/><stop offset="0.764" stop-color="#b70606"/><stop offset="1" stop-color="#a80004"/></linearGradient></defs><g transform="translate(0 0.446)" opacity="0.3" clip-path="url(#a)"><g transform="translate(-55.27 0.001)" opacity="0.3"><path d="M-3384.951,2151.823a34.915,34.915,0,0,1,34.874-34.874,34.931,34.931,0,0,1,34.892,34.874v7.057l24.568,14.182v-21.239a59.517,59.517,0,0,0-59.46-59.44,59.512,59.512,0,0,0-59.441,59.44v21.239l24.568-14.182Z" transform="translate(3450.097 -2092.383)" fill="url(#b)"/><path d="M-3448.643,2473.286l-26.63-15.371-24.569-14.184-20.948-12.1a27.946,27.946,0,0,0-27.891,0l-20.93,12.079-24.566,14.2-26.631,15.371a27.882,27.882,0,0,0-13.947,24.146v83.294a27.936,27.936,0,0,0,13.947,24.165l72.127,41.64a27.867,27.867,0,0,0,27.891,0l72.146-41.64a27.93,27.93,0,0,0,13.948-24.165v-83.294A27.876,27.876,0,0,0-3448.643,2473.286Zm-79.86,135.791h-12.447a6.127,6.127,0,0,1-5.647-3.747l-44.324-105.65a3.913,3.913,0,0,1,3.6-5.412h20.967a3.886,3.886,0,0,1,3.638,2.506l27.985,72.93,27.984-72.93a3.922,3.922,0,0,1,3.636-2.506h20.984a3.9,3.9,0,0,1,3.583,5.412l-44.307,105.65A6.13,6.13,0,0,1-3528.5,2609.077Z" transform="translate(3634.755 -2366.918)" fill="url(#c)"/></g></g></svg>