<svg width="25" height="30" viewBox="0 0 25 30" fill="none" xmlns="http://www.w3.org/2000/svg">
<path d="M20.1923 15.5588C20.2069 14.4536 20.5025 13.3704 21.0513 12.4109C21.6001 11.4515 22.3841 10.6475 23.3294 10.0747C22.723 9.22349 21.9287 8.52339 21.008 8.02863C20.0874 7.53386 19.0652 7.25773 18.0207 7.22163C15.7587 6.99497 13.6091 8.54354 12.463 8.54354C11.317 8.54354 9.5464 7.25651 7.67274 7.29138C6.44504 7.32352 5.24661 7.67298 4.19407 8.30572C3.14154 8.93846 2.27076 9.83293 1.66657 10.9021C-0.891881 15.3132 1.01191 21.8387 3.50695 25.4208C4.72594 27.1643 6.17952 29.1377 8.08964 29.0663C9.92842 28.995 10.6259 27.8871 12.8451 27.8871C15.0643 27.8871 15.6984 29.0663 17.6371 29.0299C19.6153 28.995 20.8692 27.2467 22.0755 25.4921C22.9397 24.2299 23.6167 22.8493 24.0855 21.3933C22.9373 20.9087 21.9562 20.0983 21.2638 19.0622C20.5713 18.0261 20.1977 16.8097 20.1891 15.5636" fill="#EBC553"/>
<path d="M16.5353 4.84728C17.0768 4.21799 17.4888 3.48807 17.7477 2.69932C18.0067 1.91057 18.1075 1.07849 18.0444 0.250732C16.392 0.408475 14.8616 1.18944 13.7644 2.43489C13.2203 3.03549 12.8035 3.74001 12.539 4.50601C12.2744 5.272 12.1677 6.08362 12.2252 6.89195C13.051 6.90351 13.8685 6.72564 14.6149 6.37202C15.3612 6.01839 16.0165 5.49842 16.5305 4.85204" fill="#EBC553"/>
</svg>
