<svg width="21" height="21" viewBox="0 0 21 21" fill="none" xmlns="http://www.w3.org/2000/svg">
<path opacity="0.4" d="M14.0644 1.73145H7.01019C3.94607 1.73145 2.11938 3.55813 2.11938 6.62225V13.668C2.11938 16.7406 3.94607 18.5673 7.01019 18.5673H14.056C17.1201 18.5673 18.9468 16.7406 18.9468 13.6765V6.62225C18.9552 3.55813 17.1285 1.73145 14.0644 1.73145Z" fill="#EBC553"/>
<path d="M15.5881 10.7805H5.48657C5.14143 10.7805 4.85522 10.4943 4.85522 10.1492C4.85522 9.80403 5.14143 9.51782 5.48657 9.51782H15.5881C15.9332 9.51782 16.2194 9.80403 16.2194 10.1492C16.2194 10.4943 15.9332 10.7805 15.5881 10.7805Z" fill="#EBC553"/>
</svg>
