<svg xmlns="http://www.w3.org/2000/svg" width="34.641" height="31.771" viewBox="0 0 34.641 31.771"><g transform="translate(0 0)"><path d="M32.811,197.2a4.615,4.615,0,1,1,1.354-3.266A4.449,4.449,0,0,1,32.811,197.2Zm6.244,3.211a.631.631,0,0,0-.127-.361q-1.011-1.21-1.624-2.074a9,9,0,0,0,.577-1.371l2.8-.433a.424.424,0,0,0,.289-.189.594.594,0,0,0,.126-.352v-3.338a.54.54,0,0,0-.126-.352.532.532,0,0,0-.307-.189l-2.742-.414a12.151,12.151,0,0,0-.613-1.479q.271-.4.813-1.082t.758-.974a.611.611,0,0,0,.126-.343q0-.487-2.6-2.887a.6.6,0,0,0-.38-.144.533.533,0,0,0-.361.126l-2.129,1.606a7.98,7.98,0,0,0-1.352-.56l-.416-2.759a.461.461,0,0,0-.18-.316.553.553,0,0,0-.361-.136H27.868a.529.529,0,0,0-.541.433,20.643,20.643,0,0,0-.414,2.778,8.83,8.83,0,0,0-1.39.577l-2.074-1.624a.656.656,0,0,0-.38-.126q-.342,0-1.424,1.064a15.544,15.544,0,0,0-1.481,1.606.531.531,0,0,0-.126.361.692.692,0,0,0,.126.361q1.011,1.21,1.624,2.075a8.722,8.722,0,0,0-.576,1.371l-2.8.431a.422.422,0,0,0-.289.189.6.6,0,0,0-.127.352v3.338a.542.542,0,0,0,.127.352.444.444,0,0,0,.306.17l2.744.433a9.251,9.251,0,0,0,.631,1.479q-.288.4-.847,1.1t-.74.957a.6.6,0,0,0-.126.342q0,.487,2.6,2.887a.592.592,0,0,0,.378.144.488.488,0,0,0,.361-.126l2.129-1.606a7.99,7.99,0,0,0,1.354.56l.414,2.759a.466.466,0,0,0,.18.316.556.556,0,0,0,.361.136h3.356a.527.527,0,0,0,.541-.433,21.567,21.567,0,0,0,.416-2.8,8.212,8.212,0,0,0,1.388-.559l2.075,1.624a.652.652,0,0,0,.378.126q.344,0,1.417-1.074a19.134,19.134,0,0,0,1.488-1.615A.463.463,0,0,0,39.055,200.407Z" transform="translate(-17.999 -178.054)" fill="#fff"/><path d="M40.961,200.456a2.286,2.286,0,1,1,.677-1.632A2.231,2.231,0,0,1,40.961,200.456ZM43.568,197a5.032,5.032,0,0,0-.541-.938,10.039,10.039,0,0,0,.921-2.49.157.157,0,0,0-.072-.126q-2.167-1.264-2.239-1.263l-.108.036a16.57,16.57,0,0,0-1.658,2.021c-.241-.024-.421-.036-.541-.036s-.3.012-.541.036q-.253-.379-.938-1.218t-.83-.839a4.2,4.2,0,0,0-.541.289q-.507.288-1.065.613c-.374.216-.583.336-.631.361a.155.155,0,0,0-.074.126,10,10,0,0,0,.921,2.49,5.113,5.113,0,0,0-.541.938q-2.689.271-2.689.56v2.526q0,.288,2.689.559a5.24,5.24,0,0,0,.541.938,10.038,10.038,0,0,0-.921,2.49.157.157,0,0,0,.074.127q2.2,1.279,2.237,1.28.143,0,.83-.847t.938-1.227c.24.023.42.036.541.036s.3-.013.541-.036q.251.379.937,1.227t.83.847q.037,0,2.239-1.28a.157.157,0,0,0,.072-.127,10.038,10.038,0,0,0-.921-2.49,5.241,5.241,0,0,0,.541-.938q2.689-.271,2.689-.559v-2.526Q46.257,197.271,43.568,197Z" transform="translate(-11.616 -173.71)" fill="#fff"/><path d="M40.961,187.655a2.286,2.286,0,1,1,.677-1.632A2.225,2.225,0,0,1,40.961,187.655Zm2.607-3.455a5.036,5.036,0,0,0-.541-.938,10,10,0,0,0,.921-2.49.157.157,0,0,0-.072-.126q-2.167-1.262-2.239-1.263l-.108.036a16.561,16.561,0,0,0-1.658,2.021c-.241-.025-.421-.036-.541-.036s-.3.012-.541.036q-.253-.379-.938-1.218t-.83-.839a4.428,4.428,0,0,0-.541.289q-.507.288-1.065.613c-.374.216-.583.336-.631.361a.155.155,0,0,0-.074.127,10.037,10.037,0,0,0,.921,2.49,5.02,5.02,0,0,0-.541.938q-2.689.271-2.689.559v2.526q0,.288,2.689.56a5.344,5.344,0,0,0,.541.938,10,10,0,0,0-.921,2.49.155.155,0,0,0,.074.126q2.2,1.282,2.237,1.282.143,0,.83-.849t.938-1.227c.24.025.42.036.541.036s.3-.012.541-.036q.251.379.937,1.227t.83.849q.037,0,2.239-1.282a.157.157,0,0,0,.072-.126,10,10,0,0,0-.921-2.49,5.292,5.292,0,0,0,.541-.938q2.689-.271,2.689-.56V184.76Q46.257,184.472,43.568,184.2Z" transform="translate(-11.616 -179.384)" fill="#fff"/></g></svg>