<svg xmlns="http://www.w3.org/2000/svg" xmlns:xlink="http://www.w3.org/1999/xlink" width="151.189" height="35.752" viewBox="0 0 151.189 35.752"><defs><linearGradient id="a" y1="0.5" x2="1" y2="0.5" gradientUnits="objectBoundingBox"><stop offset="0" stop-color="#646464"/><stop offset="1"/></linearGradient><linearGradient id="b" y1="0.5" x2="1" y2="0.5" gradientUnits="objectBoundingBox"><stop offset="0" stop-color="#fd2411"/><stop offset="0.313" stop-color="#de160c"/><stop offset="0.764" stop-color="#b70606"/><stop offset="1" stop-color="#a80004"/></linearGradient><linearGradient id="c" x1="0.5" x2="0.5" y2="1" gradientUnits="objectBoundingBox"><stop offset="0"/><stop offset="1" stop-color="#646464"/></linearGradient><linearGradient id="d" x1="0.5" x2="0.5" y2="1" gradientUnits="objectBoundingBox"><stop offset="0" stop-color="#a80004"/><stop offset="1" stop-color="#fd2411"/></linearGradient></defs><g transform="translate(0 0)"><path d="M-3406.418,2099.883a4.406,4.406,0,0,1,4.4-4.4,4.407,4.407,0,0,1,4.4,4.4v.89l3.1,1.789v-2.679a7.51,7.51,0,0,0-7.5-7.5,7.509,7.509,0,0,0-7.5,7.5v2.679l3.1-1.789Z" transform="translate(3414.638 -2092.383)" fill="url(#a)"/><path d="M-3611.273,2433.628l-3.36-1.939-3.1-1.79-2.643-1.527a3.527,3.527,0,0,0-3.519,0l-2.641,1.524-3.1,1.792-3.361,1.939a3.518,3.518,0,0,0-1.759,3.047v10.51a3.524,3.524,0,0,0,1.759,3.049l9.1,5.253a3.513,3.513,0,0,0,3.519,0l9.1-5.253a3.525,3.525,0,0,0,1.76-3.049v-10.51A3.519,3.519,0,0,0-3611.273,2433.628Zm-10.076,17.133h-1.57a.774.774,0,0,1-.713-.473l-5.592-13.33a.494.494,0,0,1,.454-.683h2.646a.49.49,0,0,1,.458.316l3.531,9.2,3.531-9.2a.5.5,0,0,1,.459-.316h2.647a.492.492,0,0,1,.453.683l-5.59,13.33A.773.773,0,0,1-3621.349,2450.762Z" transform="translate(3634.755 -2420.208)" fill="url(#b)"/><g transform="translate(35.577 13.641)"><g transform="translate(0 0)"><path d="M40.036,14.8a4.434,4.434,0,0,1-.932-3.031V4.625h3.433v7.162A1.235,1.235,0,0,0,43.914,13.2a1.794,1.794,0,0,0,1.681-.846V4.625h3.454V15.649h-3.22l-.1-1.192a3.542,3.542,0,0,1-2.945,1.4A3.47,3.47,0,0,1,40.036,14.8Zm-6.628.219a3.423,3.423,0,0,1-.845-2.537V7.009H31.157V4.625h1.406V1.884H36V4.625H37.81V7.009H36v5.044a1.289,1.289,0,0,0,.225.866,1.2,1.2,0,0,0,.886.245,4.944,4.944,0,0,0,.856-.061v2.456a6.32,6.32,0,0,1-1.936.3A3.6,3.6,0,0,1,33.409,15.018ZM15.37,14.8a4.434,4.434,0,0,1-.932-3.031V4.625h3.434v7.162A1.234,1.234,0,0,0,19.247,13.2a1.794,1.794,0,0,0,1.681-.846V4.625h3.454V15.649h-3.22l-.1-1.192a3.541,3.541,0,0,1-2.944,1.4A3.47,3.47,0,0,1,15.37,14.8Zm44.5-.459A5.221,5.221,0,0,1,58.3,10.4v-.285a6.766,6.766,0,0,1,.627-2.986,4.581,4.581,0,0,1,1.829-2,5.517,5.517,0,0,1,2.852-.708,4.775,4.775,0,0,1,3.668,1.441,5.669,5.669,0,0,1,1.345,4.02v1.335H61.795a2.476,2.476,0,0,0,.806,1.457,2.392,2.392,0,0,0,1.609.53,3.085,3.085,0,0,0,2.547-1.142l1.569,1.855a4.382,4.382,0,0,1-1.818,1.411,6.155,6.155,0,0,1-2.532.524A5.665,5.665,0,0,1,59.87,14.339Zm1.925-5.272h3.464V8.8a1.7,1.7,0,0,0-.417-1.278,1.664,1.664,0,0,0-1.253-.453Q62.08,7.071,61.795,9.067ZM26.44,15.65V0h3.444V15.65Zm24.514,0V4.625h3.22l.112,1.416A2.658,2.658,0,0,1,56.7,4.421a3.323,3.323,0,0,1,.958.123L57.6,7.733,56.466,7.65A2.033,2.033,0,0,0,54.387,8.67v6.98Zm-46,0L0,.814H3.963l2.945,10.8L9.862.814h3.994L8.864,15.649Z" stroke="rgba(0,0,0,0)" stroke-miterlimit="10" stroke-width="1" fill="url(#c)"/><path d="M37.352,14.835,32.094,5.6v9.232H28.518V0h3.576l5.248,9.231V0h3.565V14.835Zm-22.415,0V0h5.919a6.886,6.886,0,0,1,3.011.627A4.722,4.722,0,0,1,25.9,2.409a4.873,4.873,0,0,1,.718,2.624A4.294,4.294,0,0,1,25.059,8.5,6.449,6.449,0,0,1,20.8,9.8H18.513v5.033ZM18.513,7.04h2.343a2.21,2.21,0,0,0,1.585-.519,1.929,1.929,0,0,0,.545-1.467,2.39,2.39,0,0,0-.56-1.661A1.986,1.986,0,0,0,20.9,2.762H18.513ZM4.952,14.835,0,0H3.963L6.908,10.8,9.863,0h3.993L8.864,14.835Z" transform="translate(74.205 0.815)" stroke="rgba(0,0,0,0)" stroke-miterlimit="10" stroke-width="1" fill="url(#d)"/></g></g></g></svg>