<svg width="29" height="29" viewBox="0 0 29 29" fill="none" xmlns="http://www.w3.org/2000/svg">
<path d="M13.1678 2.26182C18.3523 1.46825 23.5432 0.714314 28.7404 0C28.7404 4.55217 28.7404 9.10328 28.7404 13.6533C23.549 13.6724 18.3576 13.7516 13.1631 13.769C13.1631 9.93119 13.1646 6.09545 13.1678 2.26182Z" fill="#EBC553"/>
<path d="M5.98906e-05 4.09719C3.90431 3.49488 7.82441 2.975 11.7445 2.48364C11.7445 6.25915 11.7445 10.0336 11.7445 13.807C7.82758 13.807 3.91065 13.8625 -0.00786591 13.853L5.98906e-05 4.09719Z" fill="#EBC553"/>
<path d="M2.70082e-05 15.0418C3.91379 15.0291 7.82754 15.0909 11.7413 15.0845C11.7413 18.8695 11.7508 22.6546 11.7413 26.4396C7.83071 25.861 3.91379 25.3539 -0.00314331 24.8229L2.70082e-05 15.0418Z" fill="#EBC553"/>
<path d="M13.1442 15.1924H28.7406C28.7469 19.7361 28.7469 24.2761 28.7406 28.8124C23.5555 28.0357 18.3609 27.3146 13.1664 26.6109C13.16 22.8068 13.1521 19.0028 13.1426 15.1987" fill="#EBC553"/>
</svg>
